<svg width="41" height="40" viewBox="0 0 41 40" fill="none" xmlns="http://www.w3.org/2000/svg">
<path d="M34.5938 0H6.40625C2.86818 0 0 2.79822 0 6.25V33.75C0 37.2018 2.86818 40 6.40625 40H34.5938C38.1318 40 41 37.2018 41 33.75V6.25C41 2.79822 38.1318 0 34.5938 0Z" fill="#F00073"/>
<path d="M20.5 11.5C23.3187 11.5 23.7031 11.5 24.8562 11.5C25.8812 11.5 26.3937 11.75 26.7781 11.875C27.2906 12.125 27.675 12.25 28.0594 12.625C28.4437 13 28.7 13.375 28.8281 13.875C28.9562 14.25 29.0844 14.75 29.2125 15.75C29.2125 16.875 29.2125 17.125 29.2125 20C29.2125 22.875 29.2125 23.125 29.2125 24.25C29.2125 25.25 28.9562 25.75 28.8281 26.125C28.5719 26.625 28.4437 27 28.0594 27.375C27.675 27.75 27.2906 28 26.7781 28.125C26.3937 28.25 25.8812 28.375 24.8562 28.5C23.7031 28.5 23.4469 28.5 20.5 28.5C17.5531 28.5 17.2969 28.5 16.1437 28.5C15.1187 28.5 14.6062 28.25 14.2219 28.125C13.7094 27.875 13.325 27.75 12.9406 27.375C12.5562 27 12.3 26.625 12.1719 26.125C12.0437 25.75 11.9156 25.25 11.7875 24.25C11.7875 23.125 11.7875 22.875 11.7875 20C11.7875 17.125 11.7875 16.875 11.7875 15.75C11.7875 14.75 12.0437 14.25 12.1719 13.875C12.4281 13.375 12.5562 13 12.9406 12.625C13.325 12.25 13.7094 12 14.2219 11.875C14.6062 11.75 15.1187 11.625 16.1437 11.5C17.2969 11.5 17.6812 11.5 20.5 11.5ZM20.5 9.625C17.5531 9.625 17.2969 9.625 16.1437 9.625C14.9906 9.625 14.2219 9.875 13.5812 10.125C12.9406 10.375 12.3 10.75 11.6594 11.375C11.0187 12 10.7625 12.5 10.3781 13.25C10.1219 13.875 9.99373 14.625 9.8656 15.75C9.8656 16.875 9.8656 17.25 9.8656 20C9.8656 22.875 9.8656 23.125 9.8656 24.25C9.8656 25.375 10.1219 26.125 10.3781 26.75C10.6344 27.375 11.0187 28 11.6594 28.625C12.3 29.25 12.8125 29.5 13.5812 29.875C14.2219 30.125 14.9906 30.25 16.1437 30.375C17.2969 30.375 17.6812 30.375 20.5 30.375C23.3187 30.375 23.7031 30.375 24.8562 30.375C26.0094 30.375 26.7781 30.125 27.4187 29.875C28.0594 29.625 28.7 29.25 29.3406 28.625C29.9812 28 30.2375 27.5 30.6219 26.75C30.8781 26.125 31.0062 25.375 31.1343 24.25C31.1343 23.125 31.1343 22.75 31.1343 20C31.1343 17.25 31.1343 16.875 31.1343 15.75C31.1343 14.625 30.8781 13.875 30.6219 13.25C30.3656 12.625 29.9812 12 29.3406 11.375C28.7 10.75 28.1875 10.5 27.4187 10.125C26.7781 9.875 26.0094 9.75 24.8562 9.625C23.7031 9.625 23.4469 9.625 20.5 9.625Z" fill="white"/>
<path d="M20.5 14.625C17.425 14.625 14.9906 17 14.9906 20C14.9906 23 17.425 25.375 20.5 25.375C23.575 25.375 26.0094 23 26.0094 20C26.0094 17 23.575 14.625 20.5 14.625ZM20.5 23.5C18.5781 23.5 16.9125 22 16.9125 20C16.9125 18.125 18.45 16.5 20.5 16.5C22.4219 16.5 24.0875 18 24.0875 20C24.0875 21.875 22.4219 23.5 20.5 23.5Z" fill="white"/>
<path d="M26.1375 15.75C26.8451 15.75 27.4187 15.1904 27.4187 14.5C27.4187 13.8096 26.8451 13.25 26.1375 13.25C25.4299 13.25 24.8562 13.8096 24.8562 14.5C24.8562 15.1904 25.4299 15.75 26.1375 15.75Z" fill="white"/>
</svg>
