<svg width="305" height="87" viewBox="0 0 305 87" fill="none" xmlns="http://www.w3.org/2000/svg">
<rect x="1" y="1" width="303" height="85" rx="11" stroke="#C7C9D9" stroke-width="2"/>
<path d="M56.5453 45.1794C56.5697 43.2925 57.0723 41.4424 58.0064 39.8013C58.9404 38.1602 60.2756 36.7813 61.8876 35.793C60.8635 34.3346 59.5125 33.1343 57.9419 32.2876C56.3713 31.4408 54.6243 30.971 52.8397 30.9153C49.0329 30.5168 45.3424 33.1869 43.4024 33.1869C41.425 33.1869 38.4383 30.9549 35.222 31.0208C33.1416 31.0879 31.1142 31.6911 29.3371 32.7718C27.5601 33.8526 26.0941 35.3739 25.0819 37.1876C20.6977 44.7571 23.9679 55.8819 28.1678 62.0006C30.269 64.9968 32.7248 68.3435 35.9382 68.2249C39.0826 68.0948 40.257 66.2254 44.0526 66.2254C47.813 66.2254 48.9148 68.2249 52.1934 68.1494C55.5675 68.0948 57.6934 65.1399 59.721 62.1154C61.2307 59.9806 62.3925 57.6211 63.1632 55.1244C61.2029 54.2976 59.5301 52.9137 58.3532 51.1452C57.1764 49.3767 56.5476 47.3018 56.5453 45.1794Z" fill="black"/>
<path d="M50.3528 26.8911C52.1925 24.6888 53.0989 21.8581 52.8794 19.0001C50.0687 19.2944 47.4725 20.634 45.6079 22.7518C44.6962 23.7865 43.998 24.9901 43.5531 26.294C43.1082 27.5979 42.9254 28.9764 43.0151 30.3508C44.421 30.3652 45.8118 30.0613 47.0828 29.4621C48.3538 28.8628 49.4719 27.9838 50.3528 26.8911V26.8911Z" fill="black"/>
<path d="M117.168 56.6582H106.849L104.371 63.9548H100L109.774 36.9592H114.315L124.089 63.9548H119.644L117.168 56.6582ZM107.917 53.2912H116.097L112.065 41.4493H111.952L107.917 53.2912Z" fill="black"/>
<path d="M145.197 54.1147C145.197 60.231 141.914 64.1606 136.96 64.1606C135.705 64.226 134.457 63.9378 133.359 63.3288C132.261 62.7198 131.356 61.8147 130.75 60.7171H130.656V70.4657H126.605V44.2727H130.526V47.5463H130.601C131.235 46.454 132.155 45.5536 133.261 44.9408C134.368 44.3281 135.62 44.0261 136.886 44.0667C141.895 44.0668 145.197 48.0155 145.197 54.1147ZM141.033 54.1147C141.033 50.13 138.968 47.5102 135.817 47.5102C132.721 47.5102 130.639 50.1851 130.639 54.1147C130.639 58.0804 132.721 60.7363 135.817 60.7363C138.968 60.7363 141.033 58.1356 141.033 54.1147H141.033Z" fill="black"/>
<path d="M166.922 54.1147C166.922 60.231 163.638 64.1606 158.684 64.1606C157.429 64.226 156.181 63.9378 155.082 63.3288C153.984 62.7198 153.08 61.8147 152.474 60.7171H152.38V70.4657H148.329V44.2727H152.25V47.5463H152.325C152.959 46.454 153.878 45.5536 154.985 44.9408C156.092 44.3281 157.344 44.0261 158.609 44.0667C163.619 44.0668 166.922 48.0155 166.922 54.1147ZM162.756 54.1147C162.756 50.13 160.691 47.5102 157.541 47.5102C154.445 47.5102 152.363 50.1851 152.363 54.1147C152.363 58.0804 154.445 60.7363 157.541 60.7363C160.691 60.7363 162.756 58.1356 162.756 54.1147V54.1147Z" fill="black"/>
<path d="M181.277 56.4329C181.577 59.11 184.185 60.8677 187.749 60.8677C191.164 60.8677 193.62 59.1099 193.62 56.696C193.62 54.6007 192.139 53.346 188.63 52.4862L185.122 51.6434C180.151 50.446 177.843 48.1278 177.843 44.3659C177.843 39.7081 181.913 36.5088 187.691 36.5088C193.414 36.5088 197.335 39.7081 197.467 44.3659H193.378C193.133 41.6718 190.9 40.0457 187.636 40.0457C184.372 40.0457 182.139 41.691 182.139 44.0857C182.139 45.9942 183.565 47.1172 187.055 47.977L190.037 48.7073C195.592 50.0171 197.897 52.242 197.897 56.1907C197.897 61.2412 193.865 64.4044 187.449 64.4044C181.445 64.4044 177.392 61.3155 177.13 56.4327L181.277 56.4329Z" fill="black"/>
<path d="M206.645 39.6147V44.2725H210.398V47.4718H206.645V58.3222C206.645 60.0079 207.397 60.7934 209.047 60.7934C209.492 60.7856 209.937 60.7544 210.379 60.6999V63.8801C209.637 64.0183 208.883 64.0809 208.129 64.0669C204.133 64.0669 202.575 62.5702 202.575 58.7531V47.4718H199.705V44.2725H202.575V39.6147H206.645Z" fill="black"/>
<path d="M212.57 54.1145C212.57 47.9218 216.228 44.0305 221.931 44.0305C227.653 44.0305 231.294 47.9218 231.294 54.1145C231.294 60.3242 227.673 64.1986 221.931 64.1986C216.191 64.1986 212.57 60.3242 212.57 54.1145ZM227.166 54.1145C227.166 49.8665 225.214 47.3593 221.931 47.3593C218.648 47.3593 216.696 49.8856 216.696 54.1145C216.696 58.3795 218.648 60.8677 221.931 60.8677C225.214 60.8677 227.166 58.3795 227.166 54.1145H227.166Z" fill="black"/>
<path d="M234.634 44.2725H238.498V47.6225H238.592C238.853 46.5762 239.468 45.6516 240.332 45.004C241.197 44.3564 242.259 44.0254 243.339 44.0665C243.806 44.0649 244.272 44.1155 244.727 44.2173V47.9961C244.138 47.8165 243.523 47.7341 242.907 47.752C242.318 47.7282 241.732 47.8317 241.187 48.0553C240.642 48.279 240.153 48.6176 239.752 49.0478C239.351 49.478 239.048 49.9896 238.864 50.5476C238.68 51.1056 238.619 51.6967 238.685 52.2803V63.9544H234.634L234.634 44.2725Z" fill="black"/>
<path d="M263.406 58.1736C262.861 61.7466 259.372 64.1986 254.908 64.1986C249.166 64.1986 245.602 60.3624 245.602 54.2079C245.602 48.0344 249.185 44.0305 254.737 44.0305C260.198 44.0305 263.632 47.7711 263.632 53.7388V55.1229H249.692V55.3671C249.628 56.0914 249.719 56.8211 249.959 57.5077C250.199 58.1943 250.583 58.8221 251.085 59.3494C251.587 59.8767 252.196 60.2914 252.871 60.566C253.547 60.8405 254.273 60.9687 255.001 60.942C255.959 61.0314 256.92 60.8103 257.741 60.3115C258.562 59.8127 259.2 59.0629 259.56 58.1736L263.406 58.1736ZM249.711 52.2994H259.579C259.615 51.6481 259.516 50.9963 259.288 50.385C259.06 49.7737 258.707 49.216 258.253 48.7469C257.798 48.2779 257.251 47.9076 256.646 47.6593C256.041 47.411 255.391 47.2901 254.737 47.3041C254.078 47.3001 253.424 47.4265 252.813 47.676C252.203 47.9254 251.648 48.293 251.181 48.7574C250.713 49.2218 250.343 49.7739 250.091 50.3818C249.838 50.9898 249.709 51.6415 249.711 52.2994V52.2994Z" fill="black"/>
<path d="M107.411 16.6392C108.26 16.5784 109.113 16.7064 109.906 17.0139C110.7 17.3213 111.416 17.8006 112.001 18.4172C112.587 19.0338 113.028 19.7723 113.292 20.5794C113.557 21.3865 113.639 22.2421 113.532 23.0845C113.532 27.2286 111.286 29.6106 107.411 29.6106H102.712V16.6392H107.411ZM104.733 27.7762H107.185C107.792 27.8124 108.4 27.7131 108.963 27.4857C109.527 27.2583 110.032 26.9084 110.443 26.4615C110.854 26.0146 111.16 25.482 111.339 24.9024C111.517 24.3228 111.564 23.7108 111.475 23.111C111.557 22.5135 111.506 21.9053 111.325 21.33C111.143 20.7546 110.837 20.2263 110.427 19.783C110.017 19.3397 109.514 18.9923 108.953 18.7657C108.393 18.5391 107.789 18.4389 107.185 18.4723H104.733V27.7762Z" fill="black"/>
<path d="M115.814 24.7116C115.752 24.0683 115.826 23.4192 116.031 22.806C116.235 22.1928 116.566 21.6291 117.002 21.1508C117.438 20.6726 117.969 20.2905 118.562 20.029C119.154 19.7676 119.795 19.6325 120.443 19.6325C121.091 19.6325 121.732 19.7676 122.325 20.029C122.917 20.2905 123.449 20.6726 123.885 21.1508C124.321 21.6291 124.651 22.1928 124.856 22.806C125.061 23.4192 125.134 24.0683 125.073 24.7116C125.135 25.3556 125.063 26.0055 124.859 26.6197C124.654 27.2339 124.324 27.7987 123.888 28.2779C123.452 28.757 122.92 29.1399 122.327 29.402C121.734 29.664 121.092 29.7994 120.443 29.7994C119.794 29.7994 119.153 29.664 118.56 29.402C117.966 29.1399 117.435 28.757 116.999 28.2779C116.563 27.7987 116.232 27.2339 116.028 26.6197C115.824 26.0055 115.751 25.3556 115.814 24.7116V24.7116ZM123.08 24.7116C123.08 22.5897 122.124 21.3488 120.446 21.3488C118.762 21.3488 117.815 22.5897 117.815 24.7116C117.815 26.8505 118.763 28.0818 120.446 28.0818C122.124 28.0818 123.08 26.842 123.08 24.7116H123.08Z" fill="black"/>
<path d="M137.38 29.6103H135.37L133.341 22.4007H133.188L131.168 29.6103H129.177L126.471 19.8213H128.436L130.195 27.2909H130.339L132.358 19.8213H134.216L136.234 27.2909H136.388L138.138 19.8213H140.075L137.38 29.6103Z" fill="black"/>
<path d="M142.351 19.821H144.216V21.3761H144.36C144.606 20.8176 145.02 20.3494 145.545 20.0367C146.07 19.7241 146.68 19.5827 147.29 19.6321C147.767 19.5963 148.247 19.6681 148.693 19.8422C149.139 20.0163 149.54 20.2883 149.866 20.6379C150.193 20.9876 150.436 21.406 150.578 21.8621C150.72 22.3183 150.758 22.8004 150.687 23.2729V29.6099H148.75V23.7581C148.75 22.185 148.065 21.4026 146.632 21.4026C146.308 21.3876 145.984 21.4426 145.683 21.564C145.382 21.6854 145.111 21.8702 144.888 22.1058C144.666 22.3414 144.497 22.6223 144.393 22.9291C144.289 23.2359 144.254 23.5614 144.288 23.8833V29.61H142.351L142.351 19.821Z" fill="black"/>
<path d="M153.774 15.9999H155.712V29.6102H153.774V15.9999Z" fill="black"/>
<path d="M158.405 24.7118C158.343 24.0684 158.417 23.4193 158.622 22.8061C158.826 22.1929 159.157 21.6291 159.593 21.1509C160.029 20.6726 160.56 20.2905 161.153 20.029C161.746 19.7676 162.387 19.6325 163.035 19.6325C163.683 19.6325 164.324 19.7676 164.916 20.029C165.509 20.2905 166.041 20.6726 166.476 21.1509C166.912 21.6291 167.243 22.1929 167.448 22.8061C167.652 23.4193 167.726 24.0684 167.665 24.7118C167.727 25.3558 167.654 26.0057 167.45 26.6199C167.246 27.2341 166.916 27.7989 166.48 28.278C166.044 28.7572 165.512 29.1401 164.919 29.4021C164.325 29.6641 163.684 29.7995 163.035 29.7995C162.386 29.7995 161.744 29.6641 161.151 29.4021C160.558 29.1401 160.026 28.7572 159.59 28.278C159.154 27.7989 158.823 27.2341 158.619 26.6199C158.415 26.0057 158.342 25.3558 158.405 24.7118V24.7118ZM165.671 24.7118C165.671 22.5899 164.715 21.349 163.037 21.349C161.353 21.349 160.406 22.5899 160.406 24.7118C160.406 26.8507 161.354 28.082 163.037 28.082C164.715 28.082 165.671 26.8422 165.671 24.7118H165.671Z" fill="black"/>
<path d="M169.704 26.8421C169.704 25.08 171.02 24.0642 173.355 23.9198L176.014 23.767V22.922C176.014 21.8881 175.329 21.3043 174.005 21.3043C172.923 21.3043 172.174 21.7003 171.959 22.3924H170.083C170.281 20.711 171.867 19.6325 174.094 19.6325C176.555 19.6325 177.943 20.8542 177.943 22.922V29.6104H176.078V28.2347H175.925C175.614 28.7282 175.177 29.1305 174.659 29.4005C174.141 29.6705 173.56 29.7986 172.976 29.7717C172.564 29.8144 172.148 29.7706 171.754 29.643C171.36 29.5154 170.997 29.3069 170.689 29.0308C170.38 28.7548 170.133 28.4174 169.964 28.0405C169.794 27.6635 169.706 27.2552 169.704 26.8421V26.8421ZM176.014 26.0056V25.1872L173.617 25.3401C172.265 25.4303 171.652 25.8889 171.652 26.7518C171.652 27.6329 172.419 28.1456 173.473 28.1456C173.781 28.1767 174.093 28.1456 174.39 28.0541C174.686 27.9626 174.961 27.8126 175.198 27.6129C175.436 27.4133 175.63 27.1681 175.77 26.892C175.91 26.6158 175.993 26.3144 176.014 26.0056V26.0056Z" fill="black"/>
<path d="M180.49 24.7115C180.49 21.6184 182.084 19.6589 184.564 19.6589C185.178 19.6307 185.787 19.7772 186.32 20.0814C186.853 20.3855 187.288 20.8346 187.575 21.3763H187.719V15.9999H189.657V29.6102H187.8V28.0637H187.647C187.338 28.6017 186.888 29.0452 186.344 29.3463C185.801 29.6473 185.185 29.7944 184.564 29.7716C182.067 29.7717 180.49 27.8121 180.49 24.7115ZM182.491 24.7115C182.491 26.7878 183.472 28.0372 185.114 28.0372C186.746 28.0372 187.756 26.7698 187.756 24.72C187.756 22.6799 186.736 21.3944 185.114 21.3944C183.483 21.3944 182.491 22.6523 182.491 24.7115H182.491Z" fill="black"/>
<path d="M197.672 24.7116C197.61 24.0683 197.684 23.4192 197.889 22.806C198.093 22.1928 198.424 21.6291 198.86 21.1508C199.296 20.6726 199.827 20.2905 200.42 20.029C201.012 19.7676 201.653 19.6325 202.301 19.6325C202.949 19.6325 203.59 19.7676 204.183 20.029C204.776 20.2905 205.307 20.6726 205.743 21.1508C206.179 21.6291 206.509 22.1928 206.714 22.806C206.919 23.4192 206.992 24.0683 206.931 24.7116C206.994 25.3556 206.921 26.0055 206.717 26.6197C206.513 27.2339 206.182 27.7987 205.746 28.2779C205.31 28.757 204.778 29.1399 204.185 29.402C203.592 29.664 202.95 29.7994 202.301 29.7994C201.653 29.7994 201.011 29.664 200.418 29.402C199.824 29.1399 199.293 28.757 198.857 28.2779C198.421 27.7987 198.09 27.2339 197.886 26.6197C197.682 26.0055 197.609 25.3556 197.672 24.7116V24.7116ZM204.938 24.7116C204.938 22.5897 203.982 21.3488 202.305 21.3488C200.621 21.3488 199.673 22.5897 199.673 24.7116C199.673 26.8505 200.621 28.0818 202.305 28.0818C203.982 28.0818 204.938 26.842 204.938 24.7116Z" fill="black"/>
<path d="M209.53 19.821H211.395V21.3761H211.54C211.785 20.8176 212.2 20.3494 212.725 20.0367C213.25 19.7241 213.86 19.5827 214.469 19.6321C214.947 19.5963 215.426 19.6681 215.872 19.8422C216.318 20.0163 216.719 20.2883 217.046 20.6379C217.372 20.9876 217.615 21.406 217.757 21.8621C217.9 22.3183 217.937 22.8004 217.867 23.2729V29.6099H215.93V23.7581C215.93 22.185 215.244 21.4026 213.811 21.4026C213.487 21.3876 213.163 21.4426 212.862 21.564C212.561 21.6854 212.29 21.8702 212.068 22.1058C211.845 22.3414 211.676 22.6223 211.572 22.9291C211.469 23.2359 211.433 23.5614 211.467 23.8833V29.61H209.53V19.821Z" fill="black"/>
<path d="M228.814 17.3842V19.8659H230.941V21.4932H228.814V26.5267C228.814 27.5521 229.237 28.0011 230.202 28.0011C230.449 28.0003 230.695 27.9854 230.941 27.9565V29.5657C230.593 29.6278 230.24 29.6608 229.887 29.6644C227.732 29.6644 226.874 28.9086 226.874 27.0213V21.4931H225.316V19.8658H226.874V17.3842H228.814Z" fill="black"/>
<path d="M233.587 15.9999H235.507V21.3944H235.66C235.918 20.8307 236.343 20.3598 236.879 20.046C237.415 19.7322 238.034 19.5907 238.653 19.6408C239.129 19.615 239.604 19.6942 240.045 19.8725C240.485 20.0509 240.882 20.3241 241.204 20.6726C241.527 21.0212 241.769 21.4365 241.913 21.889C242.056 22.3414 242.097 22.8199 242.034 23.2902V29.6103H240.095V23.7668C240.095 22.2032 239.365 21.4114 237.996 21.4114C237.663 21.3841 237.328 21.4298 237.014 21.5451C236.701 21.6604 236.417 21.8427 236.181 22.0791C235.946 22.3154 235.765 22.6003 235.651 22.9136C235.538 23.227 235.494 23.5612 235.524 23.8931V29.6102H233.587L233.587 15.9999Z" fill="black"/>
<path d="M253.331 26.9669C253.067 27.8616 252.497 28.6355 251.719 29.1532C250.942 29.6709 250.006 29.8995 249.077 29.799C248.43 29.816 247.788 29.6925 247.193 29.437C246.599 29.1815 246.068 28.8001 245.637 28.3194C245.205 27.8387 244.884 27.2701 244.695 26.6531C244.506 26.036 244.454 25.3854 244.542 24.7463C244.456 24.1053 244.509 23.4533 244.698 22.8344C244.886 22.2156 245.206 21.6443 245.635 21.1594C246.064 20.6744 246.593 20.2871 247.185 20.0236C247.778 19.7601 248.42 19.6266 249.068 19.6321C251.8 19.6321 253.448 21.493 253.448 24.5669V25.241H246.516V25.3493C246.486 25.7085 246.531 26.0701 246.649 26.4109C246.767 26.7516 246.955 27.064 247.201 27.3281C247.447 27.5921 247.746 27.8019 248.078 27.9441C248.41 28.0863 248.769 28.1576 249.13 28.1536C249.594 28.2091 250.063 28.1259 250.479 27.9146C250.895 27.7032 251.238 27.3734 251.466 26.9669L253.331 26.9669ZM246.516 23.8122H251.474C251.498 23.4837 251.454 23.1537 251.343 22.8434C251.232 22.5332 251.057 22.2495 250.829 22.0107C250.601 21.7719 250.326 21.5832 250.021 21.4567C249.716 21.3302 249.388 21.2688 249.058 21.2764C248.723 21.2722 248.39 21.3349 248.08 21.4609C247.769 21.5868 247.487 21.7735 247.251 22.0098C247.014 22.2461 246.827 22.5274 246.7 22.8369C246.574 23.1465 246.511 23.4781 246.516 23.8122H246.516Z" fill="black"/>
</svg>
