<svg width="41" height="40" viewBox="0 0 41 40" fill="none" xmlns="http://www.w3.org/2000/svg">
<path d="M34.5938 0H6.40625C2.86818 0 0 2.79822 0 6.25V33.75C0 37.2018 2.86818 40 6.40625 40H34.5938C38.1318 40 41 37.2018 41 33.75V6.25C41 2.79822 38.1318 0 34.5938 0Z" fill="#2867B2"/>
<path d="M14.8625 30H10.5062V16.625H14.8625V30ZM12.6844 14.75C11.275 14.75 10.25 13.75 10.25 12.375C10.25 11 11.4031 10 12.6844 10C14.0938 10 15.1188 11 15.1188 12.375C15.1188 13.75 14.0938 14.75 12.6844 14.75ZM30.75 30H26.3938V22.75C26.3938 20.625 25.4969 20 24.2156 20C22.9344 20 21.6531 21 21.6531 22.875V30H17.2969V16.625H21.3969V18.5C21.7812 17.625 23.3187 16.25 25.4969 16.25C27.9312 16.25 30.4938 17.625 30.4938 21.75V30H30.75Z" fill="white"/>
</svg>
