<svg width="305" height="87" viewBox="0 0 305 87" fill="none" xmlns="http://www.w3.org/2000/svg">
<rect x="1" y="1" width="303" height="85" rx="11" stroke="#C7C9D9" stroke-width="2"/>
<path d="M156.276 46.2283C154.445 46.2326 152.655 46.7799 151.135 47.8011C149.614 48.8223 148.431 50.2714 147.734 51.9652C147.037 53.6591 146.858 55.5215 147.219 57.3171C147.581 59.1127 148.467 60.7608 149.765 62.0529C151.063 63.345 152.715 64.2231 154.513 64.5762C156.31 64.9294 158.171 64.7416 159.862 64.0367C161.553 63.3318 162.996 62.1414 164.01 60.6161C165.024 59.0908 165.563 57.299 165.559 55.4674C165.577 54.2455 165.348 53.0326 164.887 51.9008C164.427 50.7689 163.743 49.7414 162.877 48.8794C162.011 48.0173 160.98 47.3383 159.846 46.8829C158.712 46.4274 157.498 46.2048 156.276 46.2283ZM156.276 61.0761C155.154 61.1546 154.033 60.8936 153.061 60.3269C152.089 59.7603 151.309 58.9142 150.824 57.8988C150.339 56.8833 150.171 55.7454 150.341 54.6329C150.511 53.5205 151.012 52.485 151.778 51.661C152.545 50.837 153.541 50.2626 154.639 50.0126C155.736 49.7625 156.883 49.8483 157.931 50.2589C158.979 50.6694 159.879 51.3857 160.514 52.3146C161.15 53.2435 161.491 54.342 161.494 55.4674C161.529 56.1805 161.42 56.8933 161.176 57.564C160.931 58.2346 160.554 58.8494 160.068 59.3721C159.582 59.8949 158.996 60.3149 158.344 60.6076C157.693 60.9002 156.99 61.0595 156.276 61.0761ZM136.015 46.2283C134.184 46.2326 132.394 46.7799 130.874 47.8011C129.353 48.8223 128.17 50.2714 127.473 51.9652C126.776 53.6591 126.597 55.5215 126.958 57.3171C127.32 59.1127 128.206 60.7608 129.504 62.0529C130.802 63.345 132.454 64.2231 134.252 64.5762C136.049 64.9294 137.911 64.7416 139.601 64.0367C141.292 63.3318 142.735 62.1414 143.749 60.6161C144.763 59.0908 145.302 57.299 145.298 55.4674C145.316 54.2455 145.087 53.0326 144.627 51.9008C144.166 50.7689 143.482 49.7414 142.616 48.8794C141.75 48.0173 140.719 47.3383 139.585 46.8829C138.451 46.4274 137.237 46.2048 136.015 46.2283ZM136.015 61.0761C134.893 61.1546 133.772 60.8936 132.8 60.3269C131.828 59.7603 131.048 58.9142 130.563 57.8988C130.078 56.8833 129.91 55.7454 130.08 54.6329C130.25 53.5205 130.751 52.485 131.517 51.661C132.284 50.837 133.281 50.2626 134.378 50.0126C135.475 49.7625 136.622 49.8483 137.67 50.2589C138.718 50.6694 139.618 51.3857 140.253 52.3146C140.889 53.2435 141.23 54.342 141.233 55.4674C141.268 56.1805 141.16 56.8933 140.915 57.564C140.67 58.2346 140.293 58.8494 139.807 59.3721C139.321 59.8949 138.735 60.3149 138.083 60.6076C137.432 60.9002 136.729 61.0595 136.015 61.0761ZM111.928 49.0761V52.9891H121.32C121.172 54.8322 120.406 56.5713 119.146 57.9239C118.204 58.8837 117.071 59.6351 115.82 60.1294C114.569 60.6237 113.229 60.8499 111.885 60.7935C109.117 60.7935 106.463 59.6941 104.506 57.7372C102.549 55.7803 101.45 53.1262 101.45 50.3587C101.45 47.5912 102.549 44.9371 104.506 42.9802C106.463 41.0233 109.117 39.9239 111.885 39.9239C114.538 39.8845 117.1 40.892 119.015 42.7283L121.776 39.9674C120.481 38.6859 118.942 37.6759 117.251 36.9965C115.56 36.3171 113.751 35.982 111.928 36.0109C109.996 35.9357 108.068 36.2514 106.26 36.9391C104.452 37.6268 102.802 38.6723 101.408 40.0131C100.014 41.3538 98.9054 42.9622 98.1479 44.7417C97.3904 46.5213 97 48.4355 97 50.3696C97 52.3036 97.3904 54.2178 98.1479 55.9974C98.9054 57.777 100.014 59.3853 101.408 60.7261C102.802 62.0668 104.452 63.1124 106.26 63.8001C108.068 64.4878 109.996 64.8035 111.928 64.7283C113.788 64.8025 115.642 64.4826 117.369 63.7895C119.097 63.0963 120.658 62.0457 121.95 60.7065C124.233 58.1987 125.449 54.9004 125.341 51.5109C125.349 50.6951 125.284 49.8802 125.146 49.0761H111.928ZM210.428 52.1196C209.861 50.4516 208.801 48.9952 207.388 47.9432C205.975 46.8911 204.276 46.2931 202.515 46.2283C201.326 46.2259 200.149 46.4675 199.057 46.9381C197.965 47.4087 196.981 48.0983 196.166 48.9642C195.351 49.8301 194.722 50.854 194.319 51.9726C193.915 53.0911 193.745 54.2806 193.82 55.4674C193.801 57.4519 194.425 59.3891 195.598 60.9897C196.771 62.5903 198.431 63.7685 200.329 64.3481C202.227 64.9278 204.262 64.8779 206.129 64.2059C207.996 63.5339 209.596 62.2758 210.689 60.6196L207.537 58.4457C207.067 59.2289 206.401 59.8756 205.604 60.3218C204.807 60.768 203.907 60.998 202.994 60.9891C202.051 61.028 201.119 60.781 200.32 60.2805C199.521 59.78 198.892 59.0494 198.515 58.1848L210.885 53.0761L210.428 52.1196ZM197.82 55.2065C197.776 54.5313 197.867 53.854 198.088 53.2144C198.309 52.5748 198.655 51.9857 199.106 51.4816C199.558 50.9775 200.105 50.5685 200.717 50.2787C201.328 49.9888 201.991 49.8239 202.667 49.7935C203.368 49.7507 204.065 49.9156 204.673 50.2675C205.28 50.6194 205.769 51.1427 206.081 51.7717L197.82 55.2065ZM187.776 64.163H191.841V36.9891H187.776V64.163ZM181.124 48.2935H180.972C180.365 47.6019 179.615 47.0496 178.775 46.6744C177.934 46.2992 177.023 46.1099 176.102 46.1196C173.727 46.2348 171.486 47.2596 169.846 48.9817C168.205 50.7038 167.29 52.9911 167.29 55.3696C167.29 57.7481 168.205 60.0353 169.846 61.7574C171.486 63.4795 173.727 64.5044 176.102 64.6196C177.024 64.6381 177.938 64.4528 178.78 64.077C179.622 63.7012 180.37 63.1442 180.972 62.4457H181.124V63.7717C181.124 67.3152 179.233 69.2065 176.189 69.2065C175.173 69.1842 174.185 68.8602 173.353 68.2758C172.521 67.6913 171.881 66.8727 171.515 65.9239L167.994 67.3804C168.645 69.0158 169.777 70.415 171.24 71.3931C172.703 72.3713 174.429 72.8823 176.189 72.8587C180.95 72.8587 184.885 70.0543 184.885 63.2283V46.7717H181.124V48.2935ZM176.45 61.0761C175.026 60.9873 173.689 60.3589 172.712 59.3188C171.734 58.2788 171.19 56.9054 171.19 55.4783C171.19 54.0512 171.734 52.6777 172.712 51.6377C173.689 50.5977 175.026 49.9692 176.45 49.8804C177.146 49.9105 177.829 50.0802 178.459 50.3796C179.088 50.679 179.65 51.102 180.113 51.6232C180.575 52.1445 180.928 52.7534 181.15 53.4138C181.373 54.0742 181.46 54.7726 181.407 55.4674C181.466 56.1645 181.383 56.8665 181.164 57.5308C180.944 58.195 180.592 58.8079 180.128 59.3321C179.665 59.8564 179.1 60.2813 178.468 60.5811C177.836 60.8808 177.149 61.0492 176.45 61.0761ZM229.472 36.9891H219.733V64.163H223.798V53.8587H229.472C230.63 53.9419 231.794 53.7856 232.889 53.3994C233.985 53.0132 234.989 52.4055 235.839 51.6141C236.69 50.8227 237.368 49.8647 237.831 48.7996C238.295 47.7346 238.534 46.5855 238.534 45.4239C238.534 44.2623 238.295 43.1132 237.831 42.0482C237.368 40.9832 236.69 40.0251 235.839 39.2337C234.989 38.4423 233.985 37.8346 232.889 37.4484C231.794 37.0622 230.63 36.9059 229.472 36.9891ZM229.472 50.0326H223.798V40.7717H229.559C230.17 40.7717 230.775 40.8921 231.339 41.1259C231.904 41.3597 232.416 41.7023 232.848 42.1343C233.28 42.5663 233.623 43.0792 233.857 43.6436C234.091 44.208 234.211 44.813 234.211 45.4239C234.211 46.0348 234.091 46.6398 233.857 47.2042C233.623 47.7687 233.28 48.2815 232.848 48.7135C232.416 49.1455 231.904 49.4882 231.339 49.722C230.775 49.9558 230.17 50.0761 229.559 50.0761L229.472 50.0326ZM254.559 46.1413C253.078 46.05 251.604 46.3947 250.317 47.1326C249.03 47.8706 247.988 48.9695 247.32 50.2935L250.907 51.7935C251.269 51.14 251.813 50.6055 252.473 50.2544C253.132 49.9034 253.88 49.7508 254.624 49.8152C255.14 49.755 255.663 49.798 256.162 49.942C256.661 50.086 257.127 50.3279 257.532 50.6537C257.936 50.9795 258.272 51.3827 258.519 51.8396C258.767 52.2966 258.92 52.7982 258.972 53.3152V53.5761C257.665 52.889 256.21 52.5308 254.733 52.5326C250.863 52.5326 246.907 54.7065 246.907 58.663C246.945 59.504 247.152 60.3287 247.515 61.0882C247.878 61.8476 248.39 62.5263 249.021 63.0839C249.652 63.6416 250.388 64.0668 251.186 64.3343C251.984 64.6019 252.828 64.7063 253.667 64.6413C254.688 64.6977 255.704 64.4819 256.614 64.0158C257.523 63.5497 258.292 62.8503 258.841 61.9891H258.972V64.163H262.885V53.7065C262.885 48.9457 259.276 46.1848 254.646 46.1848L254.559 46.1413ZM254.059 61.0326C252.733 61.0326 250.885 60.3587 250.885 58.7283C250.885 56.5543 253.189 55.8152 255.233 55.8152C256.524 55.7834 257.8 56.0987 258.928 56.7283C258.792 57.9089 258.232 58.9999 257.353 59.7994C256.473 60.5988 255.334 61.0524 254.146 61.0761L254.059 61.0326ZM277.146 46.7717L272.494 58.5543H272.363L267.537 46.7717H263.189L270.428 63.25L266.298 72.4022H270.537L281.667 46.7717H277.146ZM240.624 64.163H244.667V36.9891H240.624V64.163Z" fill="black"/>
<path d="M113.339 23.3475C113.375 24.1447 113.249 24.941 112.969 25.6882C112.688 26.4354 112.26 27.1182 111.709 27.6953C111.091 28.3329 110.346 28.8329 109.522 29.1626C108.697 29.4923 107.813 29.6442 106.926 29.6084C106.034 29.6283 105.147 29.4649 104.321 29.1284C103.495 28.7918 102.746 28.2893 102.122 27.6519C100.855 26.3561 100.146 24.6161 100.146 22.804C100.146 20.992 100.855 19.2519 102.122 17.9562C103.09 17.0099 104.317 16.3709 105.647 16.1194C106.978 15.868 108.353 16.0155 109.6 16.5432C110.384 16.8654 111.083 17.3638 111.643 17.9997L110.491 19.1519C110.06 18.6318 109.513 18.2196 108.894 17.9478C108.275 17.6761 107.601 17.5525 106.926 17.5866C106.074 17.5925 105.236 17.8071 104.486 18.2115C103.736 18.6159 103.096 19.1978 102.623 19.9065C102.15 20.6152 101.858 21.4289 101.771 22.2767C101.685 23.1245 101.808 23.9805 102.129 24.7698C102.45 25.5592 102.96 26.2578 103.613 26.8048C104.267 27.3517 105.044 27.7303 105.878 27.9074C106.711 28.0845 107.576 28.0547 108.395 27.8207C109.214 27.5867 109.964 27.1555 110.578 26.5649C111.242 25.8369 111.627 24.8974 111.665 23.9127H106.926V22.3475H113.252C113.302 22.6787 113.331 23.0127 113.339 23.3475Z" fill="black" stroke="black" stroke-width="0.411304" stroke-miterlimit="10"/>
<path d="M123.296 17.9129H117.426V22.0433H122.774V23.6085H117.426V27.739H123.296V29.3477H115.73V16.3042H123.296V17.9129Z" fill="black" stroke="black" stroke-width="0.411304" stroke-miterlimit="10"/>
<path d="M130.426 29.3477H128.752V17.9129H125.1V16.3042H134.165V17.9129H130.426V29.3477Z" fill="black" stroke="black" stroke-width="0.411304" stroke-miterlimit="10"/>
<path d="M140.557 29.3477V16.3042H142.231V29.3477H140.557Z" fill="black" stroke="black" stroke-width="0.411304" stroke-miterlimit="10"/>
<path d="M149.665 29.3477H147.991V17.9129H144.339V16.3042H153.296V17.9129H149.665V29.3477Z" fill="black" stroke="black" stroke-width="0.411304" stroke-miterlimit="10"/>
<path d="M170.274 27.6517C169.646 28.28 168.9 28.7785 168.08 29.1187C167.259 29.4588 166.38 29.6338 165.491 29.6338C164.603 29.6338 163.723 29.4588 162.903 29.1187C162.082 28.7785 161.337 28.28 160.709 27.6517C159.48 26.3452 158.795 24.6192 158.795 22.8256C158.795 21.032 159.48 19.3059 160.709 17.9995C161.323 17.3534 162.066 16.8435 162.89 16.5027C163.714 16.1619 164.6 15.9979 165.491 16.0212C166.381 16.0071 167.265 16.1754 168.087 16.5156C168.91 16.8558 169.654 17.3608 170.274 17.9995C170.899 18.6353 171.39 19.39 171.719 20.2189C172.047 21.0478 172.207 21.9341 172.187 22.8256C172.215 23.7181 172.06 24.607 171.731 25.4372C171.402 26.2673 170.906 27.0211 170.274 27.6517ZM161.948 26.5647C162.411 27.034 162.963 27.4066 163.571 27.661C164.179 27.9153 164.832 28.0463 165.491 28.0463C166.151 28.0463 166.803 27.9153 167.412 27.661C168.02 27.4066 168.572 27.034 169.035 26.5647C169.973 25.5454 170.493 24.2108 170.493 22.8256C170.493 21.4403 169.973 20.1057 169.035 19.0864C168.572 18.6171 168.02 18.2445 167.412 17.9902C166.803 17.7358 166.151 17.6049 165.491 17.6049C164.832 17.6049 164.179 17.7358 163.571 17.9902C162.963 18.2445 162.411 18.6171 161.948 19.0864C161.01 20.1057 160.489 21.4403 160.489 22.8256C160.489 24.2108 161.01 25.5454 161.948 26.5647Z" fill="black" stroke="black" stroke-width="0.411304" stroke-miterlimit="10"/>
<path d="M174.557 29.3477V16.3042H176.578L182.926 26.4564V23.9346V16.3042H184.6V29.3477H182.861L176.231 18.7172V21.2172V29.3477H174.557Z" fill="black" stroke="black" stroke-width="0.411304" stroke-miterlimit="10"/>
<path d="M27.0311 16.8861C26.3147 17.7331 25.9492 18.8219 26.0093 19.9295V68.0165C25.9354 69.126 26.3026 70.2198 27.0311 71.06L27.1833 71.2339L54.1181 44.2991V43.6469L27.1833 16.7339L27.0311 16.8861Z" fill="url(#paint0_linear_102_1434)"/>
<path d="M63.0312 53.2774L54.1182 44.2991V43.647L63.0312 34.6687L63.2269 34.7991L73.9008 40.8426C76.9442 42.56 76.9442 45.3861 73.9008 47.1252L63.2703 53.1687L63.0312 53.2774Z" fill="url(#paint1_linear_102_1434)"/>
<path d="M63.2919 53.1468L54.118 43.9729L27.031 71.0599C27.6453 71.6066 28.4316 71.9212 29.2535 71.949C30.0754 71.9768 30.8812 71.7161 31.531 71.212L63.2919 53.1468Z" fill="url(#paint2_linear_102_1434)"/>
<path d="M63.2919 34.7992L31.531 16.7557C30.8854 16.2447 30.0803 15.9776 29.2573 16.0015C28.4342 16.0253 27.6459 16.3386 27.031 16.8862L54.118 43.9731L63.2919 34.7992Z" fill="url(#paint3_linear_102_1434)"/>
<path opacity="0.2" d="M63.031 52.9509L31.531 70.8857C30.9048 71.3583 30.1416 71.614 29.3571 71.614C28.5726 71.614 27.8094 71.3583 27.1832 70.8857L27.031 71.0379L27.1832 71.2118C27.8094 71.6844 28.5726 71.9401 29.3571 71.9401C30.1416 71.9401 30.9048 71.6844 31.531 71.2118L63.2919 53.1466L63.031 52.9509Z" fill="black"/>
<path opacity="0.12" d="M27.0313 70.7554C26.333 69.8931 25.9908 68.7965 26.0747 67.6902V68.0163C26.0008 69.1258 26.368 70.2196 27.0965 71.0597L27.2486 70.9076L27.0313 70.7554Z" fill="black"/>
<path opacity="0.12" d="M73.9008 46.799L63.0312 52.9512L63.2269 53.1468L73.9008 47.1033C74.5309 46.8369 75.0774 46.4056 75.483 45.8546C75.8885 45.3037 76.138 44.6537 76.2052 43.9729C76.0692 44.5915 75.7899 45.1696 75.3896 45.6605C74.9894 46.1513 74.4794 46.5413 73.9008 46.799Z" fill="black"/>
<path opacity="0.25" d="M31.531 17.0596L73.9006 41.1465C74.4792 41.4042 74.9892 41.7942 75.3894 42.2851C75.7897 42.7759 76.069 43.354 76.2049 43.9726C76.1378 43.2919 75.8883 42.6418 75.4827 42.0909C75.0772 41.54 74.5307 41.1086 73.9006 40.8422L31.531 16.7552C28.5093 15.0161 26.0093 16.4509 26.0093 19.9291V20.2552C26.0745 16.777 28.5093 15.3422 31.531 17.0596Z" fill="white"/>
<defs>
<linearGradient id="paint0_linear_102_1434" x1="51.7267" y1="19.4295" x2="15.2485" y2="55.9078" gradientUnits="userSpaceOnUse">
<stop stop-color="#00A0FF"/>
<stop offset="0.01" stop-color="#00A1FF"/>
<stop offset="0.26" stop-color="#00BEFF"/>
<stop offset="0.51" stop-color="#00D2FF"/>
<stop offset="0.76" stop-color="#00DFFF"/>
<stop offset="1" stop-color="#00E3FF"/>
</linearGradient>
<linearGradient id="paint1_linear_102_1434" x1="77.879" y1="43.973" x2="25.2921" y2="43.973" gradientUnits="userSpaceOnUse">
<stop stop-color="#FFE000"/>
<stop offset="0.41" stop-color="#FFBD00"/>
<stop offset="0.78" stop-color="#FFA500"/>
<stop offset="1" stop-color="#FF9C00"/>
</linearGradient>
<linearGradient id="paint2_linear_102_1434" x1="58.3136" y1="48.9729" x2="8.83534" y2="98.4294" gradientUnits="userSpaceOnUse">
<stop stop-color="#FF3A44"/>
<stop offset="1" stop-color="#C31162"/>
</linearGradient>
<linearGradient id="paint3_linear_102_1434" x1="20.2049" y1="0.886189" x2="42.2919" y2="22.9731" gradientUnits="userSpaceOnUse">
<stop stop-color="#32A071"/>
<stop offset="0.07" stop-color="#2DA771"/>
<stop offset="0.48" stop-color="#15CF74"/>
<stop offset="0.8" stop-color="#06E775"/>
<stop offset="1" stop-color="#00F076"/>
</linearGradient>
</defs>
</svg>
