<svg width="41" height="40" viewBox="0 0 41 40" fill="none" xmlns="http://www.w3.org/2000/svg">
<path d="M34.5939 0H6.40627C2.86818 0 0 2.79822 0 6.25V33.75C0 37.2018 2.86818 40 6.40627 40H34.5939C38.1319 40 41.0001 37.2018 41.0001 33.75V6.25C41.0001 2.79822 38.1319 0 34.5939 0Z" fill="#1DA1F2"/>
<path d="M30.7501 13.75C29.9813 14.125 29.2126 14.25 28.3157 14.375C29.2126 13.875 29.8532 13.125 30.1094 12.125C29.3407 12.625 28.4438 12.875 27.4188 13.125C26.65 12.375 25.4969 11.875 24.3438 11.875C21.6532 11.875 19.6032 14.375 20.2438 16.875C16.7844 16.75 13.7094 15.125 11.5313 12.625C10.3781 14.5 11.0188 16.875 12.8125 18.125C12.1719 18.125 11.5313 17.875 10.8906 17.625C10.8906 19.5 12.3 21.25 14.2219 21.75C13.5813 21.875 12.9406 22 12.3 21.875C12.8125 23.5 14.35 24.75 16.2719 24.75C14.7344 25.875 12.4281 26.5 10.25 26.25C12.1719 27.375 14.35 28.125 16.6563 28.125C24.4719 28.125 28.8282 21.75 28.5719 15.875C29.4688 15.375 30.2376 14.625 30.7501 13.75Z" fill="white"/>
</svg>
