<svg width="41" height="40" viewBox="0 0 41 40" fill="none" xmlns="http://www.w3.org/2000/svg">
<path d="M34.5938 0H6.40625C2.86818 0 0 2.79822 0 6.25V33.75C0 37.2018 2.86818 40 6.40625 40H34.5938C38.1318 40 41 37.2018 41 33.75V6.25C41 2.79822 38.1318 0 34.5938 0Z" fill="#1877F2"/>
<path d="M30.75 20C30.75 14.5 26.1375 10 20.5 10C14.8625 10 10.25 14.5 10.25 20C10.25 25 13.9656 29.125 18.8344 29.875V22.875H16.2719V20H18.8344V17.75C18.8344 15.25 20.3719 13.875 22.6781 13.875C23.8313 13.875 24.9844 14.125 24.9844 14.125V16.625H23.7031C22.4219 16.625 22.0375 17.375 22.0375 18.125V20H24.8562L24.3438 22.875H21.9094V30C27.0344 29.25 30.75 25 30.75 20Z" fill="white"/>
</svg>
