<svg width="421" height="314" viewBox="0 0 421 314" fill="none" xmlns="http://www.w3.org/2000/svg">
<rect width="417" height="306" rx="16" fill="#004FC4"/>
<g clip-path="url(#clip0_573_1351)">
<path d="M50.4416 68.762C63.388 68.762 73.8831 58.2669 73.8831 45.3205C73.8831 32.374 63.388 21.8789 50.4416 21.8789C37.4951 21.8789 27 32.374 27 45.3205C27 58.2669 37.4951 68.762 50.4416 68.762Z" fill="#6DA544"/>
<path d="M40.25 49.9067C40.25 51.5954 41.619 52.9643 43.3076 52.9643H52.4804C52.4804 54.3715 53.6211 55.5123 55.0283 55.5123H58.0859C59.4931 55.5123 60.6339 54.3715 60.6339 52.9643V49.9067H40.25Z" fill="#F0F0F0"/>
<path d="M60.889 35.1284V42.2628C60.889 43.3868 59.9746 44.3012 58.8506 44.3012V47.3588C61.6606 47.3588 63.9466 45.0727 63.9466 42.2628V35.1284H60.889Z" fill="#F0F0F0"/>
<path d="M38.9759 42.2628C38.9759 43.3868 38.0615 44.3012 36.9375 44.3012V47.3588C39.7475 47.3588 42.0335 45.0727 42.0335 42.2628V35.1284H38.9759V42.2628Z" fill="#F0F0F0"/>
<path d="M56.3018 35.1284H59.3593V42.2628H56.3018V35.1284Z" fill="#F0F0F0"/>
<path d="M51.716 39.2052C51.716 39.4863 51.4874 39.7148 51.2065 39.7148C50.9255 39.7148 50.6969 39.4862 50.6969 39.2052V35.1284H47.6393V39.2052C47.6393 39.4863 47.4107 39.7148 47.1297 39.7148C46.8488 39.7148 46.6202 39.4862 46.6202 39.2052V35.1284H43.5625V39.2052C43.5625 41.1722 45.1628 42.7725 47.1297 42.7725C47.8873 42.7725 48.5898 42.5344 49.1681 42.13C49.7464 42.5343 50.449 42.7725 51.2066 42.7725C51.3591 42.7725 51.5091 42.7618 51.6566 42.743C51.44 43.6357 50.636 44.3012 49.6777 44.3012V47.3588C52.4877 47.3588 54.7737 45.0727 54.7737 42.2628V39.2052V35.1284H51.7161V39.2052H51.716Z" fill="#F0F0F0"/>
<path d="M43.5625 44.3013H48.1489V47.3588H43.5625V44.3013Z" fill="#F0F0F0"/>
</g>
<path d="M128.381 218.18L128.781 214.96C129.641 215.02 130.701 215.1 131.461 215.2L131.681 213.08C131.001 212.94 130.021 212.78 129.061 212.68L129.421 209.8H127.941L127.581 212.56H127.321C124.641 212.56 122.821 213.74 122.821 216.48C122.821 218.52 123.861 219.54 126.601 220.36L126.161 223.86C125.201 223.78 124.041 223.66 123.241 223.56L122.981 225.64C123.721 225.8 124.821 226 125.881 226.14L125.581 228.46L127.061 228.6L127.361 226.24H127.381C129.981 226.24 131.941 224.9 131.941 222.02C131.941 219.86 131.121 219.06 128.381 218.18ZM125.481 216.28C125.481 215.48 126.061 214.98 127.281 214.9L126.941 217.68C125.781 217.26 125.481 216.92 125.481 216.28ZM127.661 223.88L128.041 220.84C129.021 221.22 129.281 221.58 129.281 222.2C129.281 223.12 128.781 223.76 127.661 223.88Z" fill="#FFCC00"/>
<path d="M45.4 264H56.44V211.2H46.36L28.92 222.8L33.96 231.04L45.4 223.68V264ZM90.1656 264.96C103.286 264.96 110.646 257.92 110.646 237.92C110.646 217.92 103.286 210.24 90.1656 210.24C77.0456 210.24 69.6856 217.92 69.6856 237.92C69.6856 257.92 77.0456 264.96 90.1656 264.96ZM90.2456 255.36C83.8456 255.36 81.0456 250.88 81.0456 237.92C81.0456 224.16 83.8456 219.84 90.2456 219.84C96.6456 219.84 99.2856 224.16 99.2856 237.92C99.2856 250.88 96.6456 255.36 90.2456 255.36Z" fill="#FFCC00"/>
<mask id="mask0_573_1351" style="mask-type:alpha" maskUnits="userSpaceOnUse" x="0" y="0" width="417" height="306">
<rect width="417" height="306" rx="16" fill="#004FC4"/>
</mask>
<g mask="url(#mask0_573_1351)">
<g filter="url(#filter0_d_573_1351)">
<path d="M209.454 287.98C221.001 291.773 241.813 290.714 256.085 285.587L294.61 271.627V312.244L286.963 313.508C246.747 320.043 205.552 316.719 166.894 303.82C129.187 293.174 122.885 271.012 140.087 258.196C155.994 246.372 182.988 237.52 182.988 237.52L294.61 197.724V243.074L214.291 271.935C200.07 276.975 197.924 284.221 209.454 287.98Z" fill="white"/>
<path d="M604.729 272.14C595.379 283.964 572.523 292.405 572.523 292.405L402.349 353.732V308.519L527.578 263.715C541.799 258.589 543.996 251.395 532.449 247.602C520.902 243.808 500.09 244.902 485.801 249.994L402.349 279.504V232.599L407.134 230.89C426.004 224.815 445.449 220.715 465.159 218.656C499.068 214.965 540.607 219.168 573.187 231.591C609.923 243.176 614.062 260.332 604.729 272.14Z" fill="white"/>
<path d="M418.546 195.143V79.4953C418.546 65.945 416.06 53.4711 403.337 49.934C393.613 46.7386 387.601 55.8463 387.601 69.3796V358.961L309.803 334.167V-11C342.928 -4.83142 391.143 9.74421 417.099 18.4759C483.009 41.2023 505.354 69.465 505.354 133.133C505.268 195.109 467.085 218.656 418.546 195.143Z" fill="white"/>
</g>
</g>
<defs>
<filter id="filter0_d_573_1351" x="127" y="-11" width="485.983" height="377.961" filterUnits="userSpaceOnUse" color-interpolation-filters="sRGB">
<feFlood flood-opacity="0" result="BackgroundImageFix"/>
<feColorMatrix in="SourceAlpha" type="matrix" values="0 0 0 0 0 0 0 0 0 0 0 0 0 0 0 0 0 0 127 0" result="hardAlpha"/>
<feOffset dy="4"/>
<feGaussianBlur stdDeviation="2"/>
<feComposite in2="hardAlpha" operator="out"/>
<feColorMatrix type="matrix" values="0 0 0 0 0 0 0 0 0 0 0 0 0 0 0 0 0 0 0.25 0"/>
<feBlend mode="normal" in2="BackgroundImageFix" result="effect1_dropShadow_573_1351"/>
<feBlend mode="normal" in="SourceGraphic" in2="effect1_dropShadow_573_1351" result="shape"/>
</filter>
<clipPath id="clip0_573_1351">
<rect width="46.8831" height="46.8831" fill="white" transform="translate(27 21.8789)"/>
</clipPath>
</defs>
</svg>
