<svg width="127" height="19" viewBox="0 0 127 19" fill="none" xmlns="http://www.w3.org/2000/svg">
<path d="M9.168 13.232V11.744H7.456V4.64H5.248L0.208 11.856V13.232H5.456V16H7.456V13.232H9.168ZM5.568 6.512L5.536 11.744H1.984L5.568 6.512ZM11.276 16H11.292C11.788 16 12.188 15.584 12.188 15.088C12.188 14.592 11.788 14.192 11.276 14.192C10.796 14.192 10.38 14.608 10.38 15.088C10.38 15.584 10.796 16 11.276 16ZM18.3265 16.24C21.5745 16.24 22.9185 15.088 22.9185 10.448C22.9185 6.384 22.0065 4.64 18.3265 4.64C15.0785 4.64 13.7345 5.792 13.7345 10.432C13.7345 14.496 14.6465 16.24 18.3265 16.24ZM18.3265 14.656C16.6145 14.656 15.8145 13.808 15.8145 10.432C15.8145 7.52 16.3105 6.208 18.3265 6.208C20.0385 6.208 20.8385 7.056 20.8385 10.448C20.8385 13.344 20.3265 14.656 18.3265 14.656Z" fill="#8F90A6"/>
<path d="M46.2093 4.01092L47.4412 6.49501C47.6092 6.84081 48.0571 7.17249 48.4351 7.236L50.6679 7.61003C52.0957 7.84997 52.4317 8.89442 51.4028 9.92475L49.667 11.6749C49.373 11.9713 49.212 12.5429 49.303 12.9522L49.7999 15.1187C50.1919 16.8336 49.289 17.497 47.7842 16.6007L45.6914 15.3516C45.3134 15.1258 44.6905 15.1258 44.3056 15.3516L42.2128 16.6007C40.715 17.497 39.8051 16.8266 40.197 15.1187L40.694 12.9522C40.7849 12.5429 40.624 11.9713 40.33 11.6749L38.5942 9.92475C37.5723 8.89442 37.9013 7.84997 39.3291 7.61003L41.5619 7.236C41.9328 7.17249 42.3808 6.84081 42.5487 6.49501L43.7806 4.01092C44.4525 2.66303 45.5444 2.66303 46.2093 4.01092Z" stroke="#FFCC00" stroke-linecap="round" stroke-linejoin="round"/>
<path d="M65.2093 4.01092L66.4412 6.49501C66.6092 6.84081 67.0571 7.17249 67.4351 7.236L69.6679 7.61003C71.0957 7.84997 71.4317 8.89442 70.4028 9.92475L68.667 11.6749C68.373 11.9713 68.212 12.5429 68.303 12.9522L68.7999 15.1187C69.1919 16.8336 68.289 17.497 66.7842 16.6007L64.6914 15.3516C64.3134 15.1258 63.6905 15.1258 63.3056 15.3516L61.2128 16.6007C59.715 17.497 58.8051 16.8266 59.197 15.1187L59.694 12.9522C59.7849 12.5429 59.624 11.9713 59.33 11.6749L57.5942 9.92475C56.5723 8.89442 56.9013 7.84997 58.3291 7.61003L60.5619 7.236C60.9328 7.17249 61.3808 6.84081 61.5487 6.49501L62.7806 4.01092C63.4525 2.66303 64.5444 2.66303 65.2093 4.01092Z" fill="#FFCC00"/>
<path d="M84.2093 4.01092L85.4412 6.49501C85.6092 6.84081 86.0571 7.17249 86.4351 7.236L88.6679 7.61003C90.0957 7.84997 90.4317 8.89442 89.4028 9.92475L87.667 11.6749C87.373 11.9713 87.212 12.5429 87.303 12.9522L87.7999 15.1187C88.1919 16.8336 87.289 17.497 85.7842 16.6007L83.6914 15.3516C83.3134 15.1258 82.6905 15.1258 82.3056 15.3516L80.2128 16.6007C78.715 17.497 77.8051 16.8266 78.197 15.1187L78.694 12.9522C78.7849 12.5429 78.624 11.9713 78.33 11.6749L76.5942 9.92475C75.5723 8.89442 75.9013 7.84997 77.3291 7.61003L79.5619 7.236C79.9328 7.17249 80.3808 6.84081 80.5487 6.49501L81.7806 4.01092C82.4525 2.66303 83.5444 2.66303 84.2093 4.01092Z" fill="#FFCC00"/>
<path d="M102.796 4.01092L104.116 6.49501C104.296 6.84081 104.776 7.17249 105.18 7.236L107.573 7.61003C109.103 7.84997 109.462 8.89442 108.36 9.92475L106.5 11.6749C106.185 11.9713 106.013 12.5429 106.11 12.9522L106.643 15.1187C107.063 16.8336 106.095 17.497 104.483 16.6007L102.241 15.3516C101.836 15.1258 101.168 15.1258 100.756 15.3516L98.5137 16.6007C96.9089 17.497 95.934 16.8266 96.3539 15.1187L96.8864 12.9522C96.9839 12.5429 96.8114 11.9713 96.4964 11.6749L94.6366 9.92475C93.5417 8.89442 93.8942 7.84997 95.424 7.61003L97.8163 7.236C98.2137 7.17249 98.6937 6.84081 98.8737 6.49501L100.194 4.01092C100.913 2.66303 102.083 2.66303 102.796 4.01092Z" fill="#FFCC00"/>
<path d="M121.209 4.01092L122.441 6.49501C122.609 6.84081 123.057 7.17249 123.435 7.236L125.668 7.61003C127.096 7.84997 127.432 8.89442 126.403 9.92475L124.667 11.6749C124.373 11.9713 124.212 12.5429 124.303 12.9522L124.8 15.1187C125.192 16.8336 124.289 17.497 122.784 16.6007L120.691 15.3516C120.313 15.1258 119.691 15.1258 119.306 15.3516L117.213 16.6007C115.715 17.497 114.805 16.8266 115.197 15.1187L115.694 12.9522C115.785 12.5429 115.624 11.9713 115.33 11.6749L113.594 9.92475C112.572 8.89442 112.901 7.84997 114.329 7.61003L116.562 7.236C116.933 7.17249 117.381 6.84081 117.549 6.49501L118.781 4.01092C119.453 2.66303 120.544 2.66303 121.209 4.01092Z" fill="#FFCC00"/>
</svg>
