<svg width="30" height="30" viewBox="0 0 30 30" fill="none" xmlns="http://www.w3.org/2000/svg">
<path d="M6.4876 7.97505C6.2501 7.97505 6.0001 7.87505 5.8251 7.70005C5.4626 7.33755 5.4626 6.73755 5.8251 6.37505L10.3626 1.83755C10.7251 1.47505 11.3251 1.47505 11.6876 1.83755C12.0501 2.20005 12.0501 2.80005 11.6876 3.16255L7.1501 7.70005C6.9626 7.87505 6.7251 7.97505 6.4876 7.97505Z" fill="#4C5BA8"/>
<path d="M23.5124 7.97505C23.2749 7.97505 23.0374 7.88755 22.8499 7.70005L18.3124 3.16255C17.9499 2.80005 17.9499 2.20005 18.3124 1.83755C18.6749 1.47505 19.2749 1.47505 19.6374 1.83755L24.1749 6.37505C24.5374 6.73755 24.5374 7.33755 24.1749 7.70005C23.9999 7.87505 23.7499 7.97505 23.5124 7.97505Z" fill="#4C5BA8"/>
<path d="M25.2625 13.25C25.175 13.25 25.0875 13.25 25 13.25H24.7125H5C4.125 13.2625 3.125 13.2625 2.4 12.5375C1.825 11.975 1.5625 11.1 1.5625 9.8125C1.5625 6.375 4.075 6.375 5.275 6.375H24.725C25.925 6.375 28.4375 6.375 28.4375 9.8125C28.4375 11.1125 28.175 11.975 27.6 12.5375C26.95 13.1875 26.075 13.25 25.2625 13.25ZM5.275 11.375H25.0125C25.575 11.3875 26.1 11.3875 26.275 11.2125C26.3625 11.125 26.55 10.825 26.55 9.8125C26.55 8.4 26.2 8.25 24.7125 8.25H5.275C3.7875 8.25 3.4375 8.4 3.4375 9.8125C3.4375 10.825 3.6375 11.125 3.7125 11.2125C3.8875 11.375 4.425 11.375 4.975 11.375H5.275Z" fill="#4C5BA8"/>
<path d="M12.2 22.875C11.6875 22.875 11.2625 22.45 11.2625 21.9375V17.5C11.2625 16.9875 11.6875 16.5625 12.2 16.5625C12.7125 16.5625 13.1375 16.9875 13.1375 17.5V21.9375C13.1375 22.4625 12.7125 22.875 12.2 22.875Z" fill="#4C5BA8"/>
<path d="M17.95 22.875C17.4375 22.875 17.0125 22.45 17.0125 21.9375V17.5C17.0125 16.9875 17.4375 16.5625 17.95 16.5625C18.4625 16.5625 18.8875 16.9875 18.8875 17.5V21.9375C18.8875 22.4625 18.4625 22.875 17.95 22.875Z" fill="#4C5BA8"/>
<path d="M18.6124 28.4374H11.0749C6.59994 28.4374 5.59994 25.7749 5.21244 23.4624L3.44994 12.6499C3.36244 12.1374 3.71244 11.6624 4.22494 11.5749C4.73744 11.4874 5.21244 11.8374 5.29994 12.3499L7.06244 23.1499C7.42494 25.3624 8.17494 26.5624 11.0749 26.5624H18.6124C21.8249 26.5624 22.1874 25.4374 22.5999 23.2624L24.6999 12.3249C24.7999 11.8124 25.2874 11.4749 25.7999 11.5874C26.3124 11.6874 26.6374 12.1749 26.5374 12.6874L24.4374 23.6249C23.9499 26.1624 23.1374 28.4374 18.6124 28.4374Z" fill="#4C5BA8"/>
</svg>
