<?xml version="1.0" encoding="utf-8"?>
<!-- Generator: Adobe Illustrator 26.1.0, SVG Export Plug-In . SVG Version: 6.00 Build 0)  -->
<svg version="1.1" id="Layer_1" xmlns="http://www.w3.org/2000/svg" xmlns:xlink="http://www.w3.org/1999/xlink" x="0px" y="0px"
	 viewBox="0 0 30 30" style="enableBackground:new 0 0 30 30;" xml:space="preserve">
<style type="text/css">
	.st0{clip-path:url(#SVGID_00000071555344346341129470000007203028020628331932_);}
	.st1{clip-path:url(#SVGID_00000083080102298569848650000007549581632199008922_);}
	.st2{opacity:0.6;clip-path:url(#SVGID_00000134243174753299931910000010864292989552695459_);}
	.st3{clip-path:url(#SVGID_00000047780294822091017260000012344219738502993327_);fill:#1686C4;}
	.st4{clip-path:url(#SVGID_00000175306787044111073650000017751449830236006552_);fill:#1686C4;}
	.st5{opacity:0.07;clip-path:url(#SVGID_00000109028414230854546340000003342906236361457804_);}
	.st6{clip-path:url(#SVGID_00000004537226203358256040000002962683976918422938_);}
	.st7{clip-path:url(#SVGID_00000134951305393062279340000009643981602390306967_);fill:#5DCAE6;}
	.st8{clip-path:url(#SVGID_00000109019804741240340580000001640272854048148660_);fill:#A9E0F4;}
	.st9{clip-path:url(#SVGID_00000045599930688670577110000013521493121284583871_);fill:#2A9AD6;}
	.st10{clip-path:url(#SVGID_00000085966525781536299240000008819390253747994499_);fill:#056193;}
	.st11{clip-path:url(#SVGID_00000130634354340246198220000015148988293242690441_);fill:#8BD5E7;}
	.st12{clip-path:url(#SVGID_00000003080891160710863790000004208346369939453625_);fill:#19C0DF;}
	.st13{clip-path:url(#SVGID_00000080923224080889733530000011600173646579411627_);fill:#2A9AD6;}
	.st14{clip-path:url(#SVGID_00000031892629582955820590000010446346973401104319_);fill:#5DCAE6;}
	.st15{clip-path:url(#SVGID_00000093887736234244430990000002071706522503830460_);fill:#A9E0F4;}
	.st16{clip-path:url(#SVGID_00000057837462420183547030000018279302634219755957_);fill:#A9E0F4;}
	.st17{clip-path:url(#SVGID_00000054259581508911455510000016709746366524558990_);fill:#8BD5E7;}
	.st18{clip-path:url(#SVGID_00000005257998868733794950000014921451790828713872_);fill:#2A9AD6;}
	.st19{clip-path:url(#SVGID_00000129195161124305246710000011605603027170477712_);fill:#5DCAE6;}
	.st20{clip-path:url(#SVGID_00000183224076768258196490000009341298952740073090_);fill:#2A9AD6;}
	.st21{clip-path:url(#SVGID_00000016057237274582267430000005838185257871739534_);fill:#2A9AD6;}
	.st22{clip-path:url(#SVGID_00000171699443778695754820000006050976934983305345_);fill:#8BD5E7;}
	.st23{clip-path:url(#SVGID_00000072260144652099040500000016554599408988797117_);fill:#1D2956;}
	.st24{clip-path:url(#SVGID_00000001647636110599399470000008476166546360276901_);fill:#19C0DF;}
	.st25{clip-path:url(#SVGID_00000088849442797499875980000012834911287016125827_);fill:#056193;}
	.st26{clip-path:url(#SVGID_00000078031438389417337830000017631666523643428015_);fill:#2A9AD6;}
	.st27{clip-path:url(#SVGID_00000083788115761910110710000017755455267523591602_);fill:#A9E0F4;}
	.st28{clip-path:url(#SVGID_00000072980008968924356940000006472377799745090957_);fill:#A9E0F4;}
	.st29{clip-path:url(#SVGID_00000023965668662612706360000003339850517364106392_);fill:#056193;}
	.st30{opacity:0.6;clip-path:url(#SVGID_00000109028414230854546340000003342906236361457804_);}
	.st31{clip-path:url(#SVGID_00000183929106156325977450000016739066962486275472_);fill:#B1569F;}
	.st32{clip-path:url(#SVGID_00000018939865518541790820000012850548940513525182_);fill:#EF89AD;}
	.st33{clip-path:url(#SVGID_00000003087212802263157140000005198203064369643425_);fill:#1686C4;}
	.st34{clip-path:url(#SVGID_00000075856228355048065410000008038922382113629610_);fill:#E6B280;}
	.st35{clip-path:url(#SVGID_00000033346104405293819570000011878691545209096358_);fill:#EF89AD;}
	.st36{clip-path:url(#SVGID_00000025404923994186514740000012828949639526142112_);fill:#3F7D83;}
	.st37{clip-path:url(#SVGID_00000011026703547204903790000011362225297936945556_);fill:#7EBB42;}
	.st38{clip-path:url(#SVGID_00000103261690572917988700000005529796859125482369_);fill:#3F7D83;}
	.st39{clip-path:url(#SVGID_00000168828489245631723030000008613971853501235093_);fill:#1686C4;}
	.st40{clip-path:url(#SVGID_00000145039230565693804650000013410124576109540745_);fill:#E6B280;}
	.st41{clip-path:url(#SVGID_00000120524963708120200720000013123424786866678418_);fill:#2A9AD6;}
	.st42{clip-path:url(#SVGID_00000052103523085749588060000007180622195747146120_);fill:#3F7D83;}
	.st43{clip-path:url(#SVGID_00000088113180615619119160000018216496689876169368_);fill:#EF89AD;}
	.st44{clip-path:url(#SVGID_00000083082195797215969900000014181059590371742610_);fill:#1686C4;}
	.st45{opacity:0.59;clip-path:url(#SVGID_00000109028414230854546340000003342906236361457804_);}
	.st46{clip-path:url(#SVGID_00000169530607651199908650000011737109541112363675_);fill:#EEC21B;}
	.st47{clip-path:url(#SVGID_00000009579282521873683830000016960418770395914146_);fill:#E55350;}
	.st48{clip-path:url(#SVGID_00000178908735660003118630000001063988706543399082_);fill:#7EBB42;}
	.st49{clip-path:url(#SVGID_00000170987028022796708250000011804043039584505500_);fill:#EF89AD;}
	.st50{clip-path:url(#SVGID_00000052788972286230984310000004650297900940358552_);fill:#E6B280;}
	.st51{clip-path:url(#SVGID_00000008130111842362310600000011436862008634812350_);fill:#7EBB42;}
	.st52{clip-path:url(#SVGID_00000017500080213761705910000006159301404719376048_);fill:#EEC21B;}
	.st53{clip-path:url(#SVGID_00000088122818092742473340000002429973902178095551_);fill:#B1569F;}
	.st54{clip-path:url(#SVGID_00000178168419531918223140000014247229585455393165_);}
	.st55{clip-path:url(#SVGID_00000032634497346977537680000014143348698273137293_);fill:#5DCAE6;}
	.st56{clip-path:url(#SVGID_00000127747761956890825780000015641730392880550332_);fill:#2A9AD6;}
	.st57{opacity:0.6;clip-path:url(#SVGID_00000178168419531918223140000014247229585455393165_);}
	.st58{clip-path:url(#SVGID_00000031890578838091561220000014934130872288236479_);fill:#1686C4;}
	.st59{clip-path:url(#SVGID_00000013895327794793392920000014673319754706419341_);fill:#19C0DF;}
	.st60{clip-path:url(#SVGID_00000112621742634392833500000011123339878264411575_);fill:#056193;}
	.st61{clip-path:url(#SVGID_00000176011069313543532070000000344202259318601123_);fill:#A9E0F4;}
	.st62{clip-path:url(#SVGID_00000084530106358802914230000016537751508582250628_);fill:#056193;}
	.st63{clip-path:url(#SVGID_00000098205265069278770100000008272586365762956713_);fill:#19C0DF;}
	.st64{opacity:0.6;clip-path:url(#SVGID_00000112625168288565925510000003899032595551082154_);}
	.st65{clip-path:url(#SVGID_00000163781426322511135740000008967417285401178801_);fill:#1686C4;}
	
		.st66{clip-path:url(#SVGID_00000163781426322511135740000008967417285401178801_);fill:none;stroke:#1686C4;stroke-width:0.3264;stroke-miterlimit:10;}
	.st67{filter:url(#Adobe_OpacityMaskFilter);}
	.st68{clip-path:url(#SVGID_00000163781426322511135740000008967417285401178801_);}
	.st69{clip-path:url(#SVGID_00000062884487120400599050000014501722432788218258_);}
	.st70{enableBackground:new    ;}
	.st71{clip-path:url(#SVGID_00000001640049406397054260000015326213619916075917_);fill:#FFFFFF;}
	
		.st72{clip-path:url(#SVGID_00000001640049406397054260000015326213619916075917_);fillRule:evenodd;clipRule:evenodd;fill:#E3E4E5;}
	
		.st73{clip-path:url(#SVGID_00000163781426322511135740000008967417285401178801_);mask:url(#SVGID_00000181791497649027278090000001103300494902774180_);}
	.st74{clip-path:url(#SVGID_00000021823114010302561240000013101869976183508628_);fill:#1686C4;}
	.st75{filter:url(#Adobe_OpacityMaskFilter_00000153675474490419244040000012539823005317307796_);}
	.st76{clip-path:url(#SVGID_00000069393872369983939860000013499835009348014235_);}
	.st77{clip-path:url(#SVGID_00000121280565144913933080000008697283726964859276_);fill:#FFFFFF;}
	
		.st78{clip-path:url(#SVGID_00000121280565144913933080000008697283726964859276_);fillRule:evenodd;clipRule:evenodd;fill:#E3E4E5;}
	
		.st79{clip-path:url(#SVGID_00000163781426322511135740000008967417285401178801_);mask:url(#SVGID_00000075863133212064352830000002533276351984312498_);}
	.st80{clip-path:url(#SVGID_00000001648636202550049250000000650749495418353341_);fill:#1686C4;}
	.st81{clip-path:url(#SVGID_00000140010093362079477470000008924230507820412813_);fill:#1686C4;}
	.st82{clip-path:url(#SVGID_00000062872504965261392130000001451862253676459159_);fill:#1686C4;}
	
		.st83{clip-path:url(#SVGID_00000011000203437284124610000017955627077811200403_);fillRule:evenodd;clipRule:evenodd;fill:#1686C4;}
	.st84{fill:#58595B;}
	.st85{opacity:0.53;fill:#009444;}
	.st86{opacity:0.53;fill:#006838;}
	.st87{opacity:0.53;fill:#39B54A;}
	.st88{fill:#FFFFFF;}
	.st89{opacity:0.53;fill:#4EA8DE;}
	.st90{opacity:0.53;fill:#205EAC;}
	.st91{opacity:0.53;fill:#2359A8;}
	.st92{fill:#525CA5;}
</style>
<path class="st92" d="M0.55,8.83c0-1.95-0.02-3.9,0.01-5.84c0.02-1.22,1.13-2.34,2.35-2.44C3.31,0.52,3.72,0.5,4.12,0.5
	c3.37,0,6.73,0,10.1,0c1.32,0,2.34,0.64,2.75,1.79c0.14,0.39,0.2,0.83,0.2,1.25c0.02,2.98,0.01,5.96,0.01,8.94
	c0,0.37,0,0.38,0.38,0.38c3.01,0,6.02,0.01,9.02,0c0.86,0,1.6,0.25,2.18,0.89c0.42,0.46,0.68,1,0.69,1.64
	c0.01,1.65,0.01,3.31,0.01,4.97c0,2.21,0.01,4.43-0.02,6.64c-0.02,1.3-1.21,2.46-2.5,2.47c-3.86,0.01-7.72,0.01-11.58,0
	c-1.31-0.01-2.49-1.2-2.5-2.5c-0.02-3.11-0.01-6.22-0.01-9.33c0-0.48,0-0.48-0.49-0.48c-3.05,0-6.09,0-9.14,0
	c-1.31,0-2.39-0.87-2.66-2.15c-0.05-0.25-0.04-0.51-0.04-0.76c0-1.8,0-3.59,0-5.39C0.54,8.83,0.54,8.83,0.55,8.83z M28.31,21.17
	c0-1.84,0-3.69,0-5.53c0-0.97-0.65-1.62-1.62-1.62c-3.69,0-7.38,0-11.06,0c-0.12,0-0.25,0.01-0.37,0.03
	c-0.78,0.18-1.24,0.79-1.25,1.64c0,1.9,0,3.8,0,5.7c0,1.76,0,3.52,0,5.28c0,1,0.66,1.65,1.66,1.65c3.67,0,7.34,0,11.01,0
	c0.97,0,1.62-0.65,1.62-1.61C28.31,24.85,28.31,23.01,28.31,21.17z M8.83,1.7c-1.85,0-3.71,0-5.56,0c-0.92,0-1.58,0.66-1.58,1.57
	c0,3.72,0,7.43,0,11.15c0,0.88,0.65,1.57,1.53,1.57C6.34,16,9.46,15.99,12.58,16c0.22,0,0.28-0.09,0.28-0.29
	c0-0.22,0-0.44,0.04-0.65c0.27-1.39,1.52-2.25,2.71-2.19c0.37,0.02,0.38,0,0.38-0.38c0-3.05,0-6.11,0-9.16
	c0-0.96-0.67-1.63-1.62-1.63C12.52,1.7,10.68,1.7,8.83,1.7z"/>
<path class="st92" d="M27.52,10.78c-0.43,0-0.85,0-1.28,0c-0.38,0-0.64-0.24-0.65-0.57c-0.01-0.32,0.27-0.57,0.64-0.57
	c0.59,0,1.17-0.01,1.76,0c0.26,0.01,0.33-0.09,0.31-0.34c-0.36-3.99-3.37-6.94-6.93-7.49c-0.4-0.06-0.81-0.09-1.21-0.11
	c-0.43-0.02-0.72-0.26-0.71-0.61c0.01-0.36,0.34-0.58,0.77-0.56c1.45,0.04,2.83,0.37,4.1,1.05c2.82,1.52,4.51,3.86,5.01,7.04
	c0.08,0.5,0.09,1.01,0.11,1.52c0.01,0.42-0.22,0.64-0.65,0.64C28.37,10.78,27.94,10.78,27.52,10.78z"/>
<path class="st92" d="M24.86,25.25c0,0.34-0.17,0.57-0.42,0.63c-0.31,0.07-0.58-0.07-0.71-0.38c-0.21-0.53-0.42-1.05-0.59-1.59
	c-0.1-0.31-0.24-0.42-0.58-0.41c-0.92,0.03-1.83,0.02-2.75,0c-0.32-0.01-0.45,0.11-0.54,0.39c-0.18,0.55-0.39,1.08-0.61,1.62
	c-0.12,0.3-0.33,0.41-0.62,0.38c-0.27-0.03-0.44-0.2-0.49-0.44c-0.03-0.15,0.02-0.33,0.07-0.49c0.83-2.29,1.68-4.57,2.52-6.86
	c0.14-0.39,0.29-0.78,0.43-1.17c0.1-0.28,0.3-0.45,0.59-0.45c0.28,0,0.49,0.17,0.59,0.45c1.02,2.71,2.03,5.41,3.05,8.11
	C24.84,25.12,24.85,25.21,24.86,25.25z M21.2,18.84c-0.04,0-0.07-0.01-0.11-0.01c-0.42,1.15-0.83,2.3-1.27,3.49c0.9,0,1.73,0,2.63,0
	C22.03,21.13,21.61,19.99,21.2,18.84z"/>
<path class="st92" d="M9.8,11.99c0.58,0.39,1.18,0.63,1.82,0.76c0.36,0.07,0.73,0.09,1.09,0.12c0.52,0.04,0.83,0.39,0.67,0.81
	c-0.11,0.28-0.34,0.4-0.63,0.39c-1.3-0.03-2.52-0.38-3.61-1.09c-0.21-0.14-0.36-0.15-0.58-0.01c-1.11,0.72-2.34,1.07-3.67,1.09
	c-0.36,0.01-0.62-0.23-0.65-0.55c-0.03-0.28,0.19-0.53,0.52-0.61c0.11-0.02,0.22-0.03,0.34-0.04c0.94-0.03,1.8-0.3,2.61-0.77
	c0.05-0.03,0.09-0.07,0.15-0.12c-0.09-0.11-0.16-0.21-0.25-0.3c-0.92-1.06-1.47-2.3-1.66-3.69C5.93,7.75,5.82,7.71,5.63,7.71
	c-0.26,0.01-0.53,0.01-0.79,0C4.5,7.71,4.25,7.46,4.24,7.15c-0.01-0.32,0.25-0.58,0.6-0.58c1.02-0.01,2.04-0.01,3.06,0
	c0.29,0,0.38-0.09,0.37-0.37c-0.02-0.63-0.01-1.27,0-1.9c0-0.4,0.23-0.67,0.57-0.67c0.35-0.01,0.58,0.26,0.58,0.68
	c0,0.62,0,1.25,0,1.87c0,0.38,0.01,0.39,0.38,0.39c0.98,0,1.97,0.01,2.95,0c0.45-0.01,0.66,0.27,0.67,0.57
	c0.02,0.35-0.26,0.58-0.68,0.59c-0.22,0-0.44,0.02-0.65,0c-0.27-0.03-0.34,0.11-0.4,0.34c-0.13,0.57-0.26,1.14-0.45,1.69
	c-0.27,0.76-0.72,1.41-1.25,2.01C9.93,11.82,9.88,11.89,9.8,11.99z M8.85,7.72c-0.48,0-0.96,0-1.45,0c-0.17,0-0.27,0.04-0.23,0.25
	c0.18,1.18,0.66,2.21,1.46,3.11c0.18,0.2,0.29,0.17,0.45-0.01c0.78-0.89,1.27-1.91,1.45-3.08c0.03-0.19-0.04-0.26-0.23-0.26
	C9.81,7.72,9.33,7.72,8.85,7.72z"/>
<path class="st92" d="M2.47,19.24c0.43,0,0.85,0,1.28,0c0.38,0,0.64,0.24,0.65,0.57c0.01,0.32-0.27,0.57-0.64,0.57
	c-0.59,0-1.17,0.01-1.76,0c-0.26-0.01-0.33,0.09-0.31,0.34c0.36,3.99,3.37,6.94,6.93,7.49c0.4,0.06,0.81,0.09,1.21,0.11
	c0.43,0.02,0.72,0.26,0.71,0.61c-0.01,0.36-0.34,0.58-0.77,0.56c-1.45-0.04-2.83-0.37-4.1-1.05c-2.82-1.52-4.51-3.86-5.01-7.04
	c-0.08-0.5-0.09-1.01-0.11-1.52c-0.01-0.42,0.22-0.64,0.65-0.64C1.62,19.24,2.05,19.24,2.47,19.24z"/>
</svg>
