<?xml version="1.0" encoding="utf-8"?>
<!-- Svg Vector Icons : http://www.onlinewebfonts.com/icon -->
<!DOCTYPE svg PUBLIC "-//W3C//DTD SVG 1.1//EN" "http://www.w3.org/Graphics/SVG/1.1/DTD/svg11.dtd">
<svg version="1.1" xmlns="http://www.w3.org/2000/svg" xmlns:xlink="http://www.w3.org/1999/xlink" x="0px" y="0px" viewBox="0 0 1000 1000" enableBackground="new 0 0 1000 1000" xml:space="preserve">
<metadata> Svg Vector Icons : http://www.onlinewebfonts.com/icon </metadata>
<g><g transform="translate(0.000000,511.000000) scale(0.100000,-0.100000)"><path d="M4354.3,4970C1466.9,4574.6-461.1,1739.3,247-1068.4c386.2-1541.8,1529.5-2823,3034.5-3402.3c2911.9-1124.9,6161,836.8,6577.8,3969.4C10150.5,1693.3,8854,3851.2,6739,4691C6034,4970,5126.7,5077.2,4354.3,4970z M5114.5,4709.4c134.9-125.7,282-499.6,404.6-1011.5c67.4-294.3,183.9-959.4,168.6-974.7c-24.5-27.6-882.8-42.9-1124.9-24.5l-263.6,24.5l15.3,110.3c42.9,306.5,199.2,1036,272.8,1265.9c134.9,426.1,285.1,671.3,410.7,671.3C5025.6,4770.7,5077.7,4743.1,5114.5,4709.4z M4559.7,4672.6c-217.6-484.3-337.2-898.1-444.4-1551c-33.7-190-64.4-352.5-73.6-358.6c-21.4-24.5-640.6,98.1-968.6,190l-282,79.7l113.4,202.3c373.9,674.3,882.8,1180.1,1410,1397.7C4513.7,4715.6,4584.2,4727.8,4559.7,4672.6z M5669.2,4635.9c392.4-159.4,787.8-484.3,1106.5-910.4c177.8-239.1,398.5-610,398.5-668.2c0-52.1-545.6-196.2-1112.6-294.3c-134.9-21.5-119.6-49-190.1,398.5c-27.6,187-92,493.5-141,686.6c-76.6,294.3-125.7,432.2-294.2,824.5C5411.8,4727.8,5467,4718.6,5669.2,4635.9z M3575.8,4448.9c-294.3-242.1-671.3-723.4-892-1149.4c-49-92-92-174.7-98.1-180.8c-18.4-30.6-812.3,334.1-800,367.8c15.3,39.8,429.1,373.9,616.1,496.5c282,187,677.4,386.2,980.8,499.6c156.3,55.2,300.4,101.1,321.8,104.2C3729,4586.8,3670.8,4525.5,3575.8,4448.9z M6582.7,4491.8c321.8-113.4,711.1-309.6,1011.5-508.8c220.7-147.1,616.1-469,619.2-502.7c3.1-33.7-784.7-386.2-806.2-361.7c-6.1,6.1-49,88.9-95,180.8c-202.3,398.5-594.6,904.2-892,1149.4c-95,76.6-156.3,137.9-141,137.9C6297.6,4586.8,6432.5,4543.9,6582.7,4491.8z M1819.4,3170.7c104.2-52.1,294.3-137.9,423-190l233-95l-116.5-306.5c-214.6-560.9-364.8-1305.8-413.8-2029.1l-21.5-315.7h-796.9H332.8l21.5,239.1c73.6,821.5,337.2,1578.6,775.5,2237.6c168.6,251.4,426.1,557.9,469,557.9C1614.1,3268.8,1715.2,3225.9,1819.4,3170.7z M8575,3100.2c591.6-689.7,974.7-1630.7,1069.7-2642.2l21.5-223.8h-796.9h-796.9l-33.7,438.3c-58.3,723.4-233,1508.1-444.4,2029.1l-76.6,180.8l266.7,110.3c144,61.3,334.1,147.1,416.9,193.1c85.8,42.9,168.6,79.7,190,82.8C8409.5,3268.8,8492.3,3192.2,8575,3100.2z M3143.6,2683.4c187-46,450.6-107.3,591.6-131.8c141-21.5,263.6-49,272.8-58.2c6.1-9.2,0-165.5-18.4-349.4c-42.9-410.7-95-1318-95-1655.2V234.3h-861.3h-864.4l21.4,331c42.9,643.7,187,1391.6,370.9,1906.5c113.4,315.7,131.8,346.4,193.1,321.8C2781.9,2781.4,2959.7,2732.4,3143.6,2683.4z M7410.3,2530.1c196.2-511.9,346.4-1281.2,395.4-1980.1l21.5-315.7h-858.2h-858.2l-21.5,591.6c-12.2,321.8-39.8,827.6-67.4,1121.9c-49,576.3-46,585.4,107.3,585.4c95,0,732.6,144.1,950.2,214.6c95,30.7,187,52.1,202.3,49C7299.9,2793.7,7355.1,2674.2,7410.3,2530.1z M5733.6,2441.2c0-9.2,21.5-236,46-505.8c21.5-269.7,52.1-763.2,64.4-1094.3l21.5-606.9H4998h-867.4l21.5,600.8c12.3,331,39.9,824.5,64.4,1097.3c24.5,269.7,46,499.6,46,508.8s331,15.3,735.6,15.3C5402.6,2456.5,5733.6,2450.4,5733.6,2441.2z M1945.1-323.6c49-732.6,208.4-1505,426-2065.9l104.2-272.8l-141-55.2c-76.6-30.7-275.9-119.6-444.4-199.2l-303.4-144.1l-147.1,165.5c-588.5,656-996.2,1649.1-1085.1,2648.3l-21.5,236h793.9h796.9L1945.1-323.6z M3894.5-277.6c0-340.2,49-1210.7,95-1642.9c18.4-183.9,27.6-337.2,21.4-343.3c-6.1-6.1-190-49.1-407.7-92c-220.7-39.8-508.8-110.4-640.6-150.2c-134.9-42.9-254.4-70.5-266.7-61.3c-42.9,24.5-217.6,548.7-306.5,916.5c-104.2,438.3-168.6,861.3-199.2,1311.9l-21.4,328h864.4h861.3V-277.6z M5844-599.4c-18.4-545.6-52.1-1048.3-98.1-1465.1l-18.4-168.6h-732.6c-401.5,0-732.6,6.1-732.6,15.3s-21.5,239.1-46,508.8c-24.5,272.8-52.1,766.3-64.4,1097.3l-21.5,600.8H4998h867.4L5844-599.4z M7805.7-323.6c-33.7-493.5-104.2-953.2-217.6-1388.5c-98.1-383.1-239.1-803.1-285-849.1c-12.3-12.3-137.9,12.3-282,55.2c-144.1,42.9-432.2,110.4-643.7,153.3c-211.5,42.9-386.2,82.8-392.3,85.8c-3.1,6.1,12.2,251.3,36.8,542.5c27.6,294.3,55.2,800,67.4,1124.9l21.5,588.5h858.2h858.2L7805.7-323.6z M9644.8-231.6c-58.2-616.1-229.9-1250.6-472-1728.7c-156.3-312.6-447.5-751-625.3-947.1l-137.9-153.3l-303.4,144.1c-168.6,79.7-367.8,168.6-447.5,199.2l-141,55.2l76.6,183.9c211.5,521.1,386.2,1302.7,444.4,2032.2l33.7,435.3h796.9h796.9L9644.8-231.6z M5540.5-2481.4l156.3-21.4l-15.3-110.4c-79.7-576.2-285.1-1382.4-413.8-1642.9c-76.6-153.2-205.4-291.2-269.7-291.2c-125.7,0-275.9,245.2-410.7,671.3c-73.6,229.9-229.9,956.3-272.8,1265.9l-18.4,113.4l128.7,12.3C4651.6-2466.1,5375-2463,5540.5-2481.4z M4063.1-2591.8c6.1-39.8,36.8-208.4,64.4-377c70.5-441.4,214.6-974.7,334.1-1253.7c58.2-134.8,98.1-251.3,92-257.5c-24.5-24.5-303.4,88.9-518,214.6c-395.4,232.9-839.9,723.4-1134.1,1253.6l-110.3,202.3l297.3,85.8c254.4,70.5,790.8,187,919.6,196.2C4029.4-2524.3,4053.9-2555,4063.1-2591.8z M6466.2-2619.4c383.2-76.6,708.1-174.7,708.1-214.6c0-58.2-220.7-429.1-398.5-668.2c-318.8-426-714.2-751-1106.5-910.3c-266.6-110.4-275.9-101.2-162.5,134.9c131.8,272.8,266.7,760.1,349.4,1265.9c36.8,226.8,73.5,429.1,79.7,450.6C5948.2-2518.2,5981.9-2521.3,6466.2-2619.4z M2677.7-3063.8c193.1-392.3,597.7-916.5,898.1-1161.7c95-76.6,156.3-137.9,141-137.9c-18.4,0-153.3,42.9-303.5,95c-321.8,113.4-711.1,309.6-1011.5,508.8c-239.1,159.4-619.2,469-619.2,508.8c-3.1,12.3,61.3,52.1,144.1,88.9c487.4,214.6,606.9,266.6,634.5,266.6C2579.6-2892.1,2631.7-2968.8,2677.7-3063.8z M7652.4-2981.1c343.3-144.1,564-251.3,560.9-272.8c-3.1-39.9-401.6-358.6-649.8-521.1c-137.9-92-355.6-217.7-481.2-282c-214.6-107.3-732.6-306.5-800-306.5c-18.4,0,55.2,73.6,162.5,165.5c309.6,260.5,738.7,824.6,895,1177c30.7,70.5,67.4,128.7,79.7,128.7C7431.7-2892.1,7535.9-2932,7652.4-2981.1z"/></g></g>
</svg>