<?xml version="1.0" encoding="utf-8"?>
<!-- Generator: Adobe Illustrator 26.1.0, SVG Export Plug-In . SVG Version: 6.00 Build 0)  -->
<svg version="1.1" id="Layer_1" xmlns="http://www.w3.org/2000/svg" xmlns:xlink="http://www.w3.org/1999/xlink" x="0px" y="0px"
	 viewBox="0 0 30 30" style="enableBackground:new 0 0 30 30;" xml:space="preserve">
<style type="text/css">
	.st0{fill:#4B5CA8;}
</style>
<g>
	<path class="st0" d="M0.27,9.01c0-1.95-0.02-3.9,0.01-5.84C0.3,1.95,1.41,0.82,2.63,0.73c0.4-0.03,0.81-0.05,1.22-0.05
		c3.37,0,6.73,0,10.1,0c1.32,0,2.34,0.64,2.75,1.79c0.14,0.39,0.2,0.83,0.2,1.25c0.02,2.98,0.01,5.96,0.01,8.94
		c0,0.37,0,0.38,0.38,0.38c3.01,0,6.02,0.01,9.02,0c0.86,0,1.6,0.25,2.18,0.89c0.42,0.46,0.68,1,0.69,1.64
		c0.01,1.65,0.01,3.31,0.01,4.97c0,2.21,0.01,4.43-0.02,6.64c-0.02,1.3-1.21,2.46-2.5,2.47c-3.86,0.01-7.72,0.01-11.58,0
		c-1.31-0.01-2.49-1.2-2.5-2.5c-0.02-3.11-0.01-6.22-0.01-9.33c0-0.48,0-0.48-0.49-0.48c-3.05,0-6.09,0-9.14,0
		c-1.31,0-2.39-0.87-2.66-2.15c-0.05-0.25-0.04-0.51-0.04-0.76c0-1.8,0-3.59,0-5.39C0.26,9.01,0.27,9.01,0.27,9.01z M28.04,21.35
		c0-1.84,0-3.69,0-5.53c0-0.97-0.65-1.62-1.62-1.62c-3.69,0-7.38,0-11.06,0c-0.12,0-0.25,0.01-0.37,0.03
		c-0.78,0.18-1.24,0.79-1.25,1.64c0,1.9,0,3.8,0,5.7c0,1.76,0,3.52,0,5.28c0,1,0.66,1.65,1.66,1.65c3.67,0,7.34,0,11.01,0
		c0.97,0,1.62-0.65,1.62-1.61C28.04,25.03,28.04,23.19,28.04,21.35z M8.56,1.88c-1.85,0-3.71,0-5.56,0c-0.92,0-1.58,0.66-1.58,1.57
		c0,3.72,0,7.43,0,11.15c0,0.88,0.65,1.57,1.53,1.57c3.12,0.01,6.24,0.01,9.36,0.01c0.22,0,0.28-0.09,0.28-0.29
		c0-0.22,0-0.44,0.04-0.65c0.27-1.39,1.52-2.25,2.71-2.19c0.37,0.02,0.38,0,0.38-0.38c0-3.05,0-6.11,0-9.16
		c0-0.96-0.67-1.63-1.62-1.63C12.25,1.88,10.41,1.88,8.56,1.88z"/>
	<path class="st0" d="M27.24,10.96c-0.43,0-0.85,0-1.28,0c-0.38,0-0.64-0.24-0.65-0.57c-0.01-0.32,0.27-0.57,0.64-0.57
		c0.59,0,1.17-0.01,1.76,0c0.26,0.01,0.33-0.09,0.31-0.34c-0.36-3.99-3.37-6.94-6.93-7.49c-0.4-0.06-0.81-0.09-1.21-0.11
		c-0.43-0.02-0.72-0.26-0.71-0.61c0.01-0.36,0.34-0.58,0.77-0.56c1.45,0.04,2.83,0.37,4.1,1.05c2.82,1.52,4.51,3.86,5.01,7.04
		c0.08,0.5,0.09,1.01,0.11,1.52c0.01,0.42-0.22,0.64-0.65,0.64C28.1,10.96,27.67,10.96,27.24,10.96z"/>
	<path class="st0" d="M24.59,25.43c0,0.34-0.17,0.57-0.42,0.63c-0.31,0.07-0.58-0.07-0.71-0.38c-0.21-0.53-0.42-1.05-0.59-1.59
		c-0.1-0.31-0.24-0.42-0.58-0.41c-0.92,0.03-1.83,0.02-2.75,0c-0.32-0.01-0.45,0.11-0.54,0.39c-0.18,0.55-0.39,1.08-0.61,1.62
		c-0.12,0.3-0.33,0.41-0.62,0.38c-0.27-0.03-0.44-0.2-0.49-0.44c-0.03-0.15,0.02-0.33,0.07-0.49c0.83-2.29,1.68-4.57,2.52-6.86
		c0.14-0.39,0.29-0.78,0.43-1.17c0.1-0.28,0.3-0.45,0.59-0.45c0.28,0,0.49,0.17,0.59,0.45c1.02,2.71,2.03,5.41,3.05,8.11
		C24.57,25.3,24.58,25.39,24.59,25.43z M20.93,19.02c-0.04,0-0.07-0.01-0.11-0.01c-0.42,1.15-0.83,2.3-1.27,3.49
		c0.9,0,1.73,0,2.63,0C21.76,21.31,21.34,20.16,20.93,19.02z"/>
	<path class="st0" d="M9.52,12.17c0.58,0.39,1.18,0.63,1.82,0.76c0.36,0.07,0.73,0.09,1.09,0.12c0.52,0.04,0.83,0.39,0.67,0.81
		c-0.11,0.28-0.34,0.4-0.63,0.39c-1.3-0.03-2.52-0.38-3.61-1.09c-0.21-0.14-0.36-0.15-0.58-0.01c-1.11,0.72-2.34,1.07-3.67,1.09
		c-0.36,0.01-0.62-0.23-0.65-0.55c-0.03-0.28,0.19-0.53,0.52-0.61c0.11-0.02,0.22-0.03,0.34-0.04c0.94-0.03,1.8-0.3,2.61-0.77
		c0.05-0.03,0.09-0.07,0.15-0.12c-0.09-0.11-0.16-0.21-0.25-0.3c-0.92-1.06-1.47-2.3-1.66-3.69C5.66,7.93,5.55,7.89,5.36,7.89
		c-0.26,0.01-0.53,0.01-0.79,0C4.23,7.89,3.98,7.64,3.97,7.33c-0.01-0.32,0.25-0.58,0.6-0.58c1.02-0.01,2.04-0.01,3.06,0
		c0.29,0,0.38-0.09,0.37-0.37c-0.02-0.63-0.01-1.27,0-1.9c0-0.4,0.23-0.67,0.57-0.67C8.91,3.8,9.14,4.06,9.14,4.49
		c0,0.62,0,1.25,0,1.87c0,0.38,0.01,0.39,0.38,0.39c0.98,0,1.97,0.01,2.95,0c0.45-0.01,0.66,0.27,0.67,0.57
		c0.02,0.35-0.26,0.58-0.68,0.59c-0.22,0-0.44,0.02-0.65,0c-0.27-0.03-0.34,0.11-0.4,0.34c-0.13,0.57-0.26,1.14-0.45,1.69
		c-0.27,0.76-0.72,1.41-1.25,2.01C9.66,12,9.61,12.06,9.52,12.17z M8.57,7.9c-0.48,0-0.96,0-1.45,0c-0.17,0-0.27,0.04-0.23,0.25
		c0.18,1.18,0.66,2.21,1.46,3.11c0.18,0.2,0.29,0.17,0.45-0.01c0.78-0.89,1.27-1.91,1.45-3.08c0.03-0.19-0.04-0.26-0.23-0.26
		C9.54,7.9,9.06,7.9,8.57,7.9z"/>
	<path class="st0" d="M2.2,19.42c0.43,0,0.85,0,1.28,0c0.38,0,0.64,0.24,0.65,0.57c0.01,0.32-0.27,0.57-0.64,0.57
		c-0.59,0-1.17,0.01-1.76,0c-0.26-0.01-0.33,0.09-0.31,0.34c0.36,3.99,3.37,6.94,6.93,7.49c0.4,0.06,0.81,0.09,1.21,0.11
		c0.43,0.02,0.72,0.26,0.71,0.61c-0.01,0.36-0.34,0.58-0.77,0.56c-1.45-0.04-2.83-0.37-4.1-1.05c-2.82-1.52-4.51-3.86-5.01-7.04
		c-0.08-0.5-0.09-1.01-0.11-1.52c-0.01-0.42,0.22-0.64,0.65-0.64C1.35,19.42,1.78,19.42,2.2,19.42z"/>
</g>
</svg>
