<?xml version="1.0" encoding="utf-8"?>
<!-- Generator: Adobe Illustrator 26.1.0, SVG Export Plug-In . SVG Version: 6.00 Build 0)  -->
<svg version="1.1" id="Layer_1" xmlns="http://www.w3.org/2000/svg" xmlns:xlink="http://www.w3.org/1999/xlink" x="0px" y="0px"
	 viewBox="0 0 500 500" style="enableBackground:new 0 0 500 500;" xml:space="preserve">
<path d="M25.69,156.68c0-30.6-0.3-61.21,0.11-91.8c0.25-19.11,17.8-36.8,36.99-38.25c6.35-0.48,12.74-0.78,19.11-0.78
	c52.89-0.06,105.77-0.06,158.66-0.02c20.8,0.01,36.8,10.09,43.22,28.11c2.19,6.14,3.11,13.04,3.15,19.6
	c0.26,46.79,0.14,93.59,0.14,140.39c0,5.89,0.01,5.94,5.9,5.94c47.24,0.02,94.48,0.13,141.73-0.06
	c13.54-0.05,25.13,3.92,34.28,14.01c6.58,7.26,10.7,15.78,10.78,25.71c0.2,26,0.22,51.99,0.21,77.99
	c-0.01,34.76,0.19,69.53-0.3,104.28c-0.28,20.41-18.93,38.7-39.3,38.78c-60.61,0.22-121.22,0.23-181.83,0
	c-20.56-0.08-39.17-18.81-39.28-39.28c-0.24-48.87-0.13-97.75-0.16-146.63c0-7.48-0.01-7.48-7.65-7.48
	c-47.84,0-95.67,0.03-143.51-0.02c-20.63-0.02-37.55-13.67-41.75-33.82c-0.81-3.87-0.67-7.98-0.68-11.98
	c-0.05-28.23-0.03-56.45-0.03-84.68C25.56,156.68,25.63,156.68,25.69,156.68z M461.77,350.42c0-28.96,0.01-57.93,0-86.89
	c-0.01-15.16-10.21-25.43-25.38-25.43c-57.93-0.02-115.85-0.01-173.78,0.01c-1.91,0-3.88,0.1-5.73,0.52
	c-12.24,2.82-19.54,12.33-19.57,25.69c-0.06,29.85-0.02,59.71-0.02,89.56c0,27.63-0.07,55.25,0.03,82.88
	c0.05,15.64,10.44,25.86,26.09,25.86c57.63,0.02,115.26,0.02,172.89,0c15.3-0.01,25.47-10.16,25.47-25.32
	C461.78,408.34,461.77,379.38,461.77,350.42z M155.91,44.6c-29.12,0-58.23-0.02-87.35,0.01c-14.38,0.01-24.81,10.3-24.82,24.61
	c-0.03,58.38-0.03,116.77,0,175.15c0.01,13.85,10.14,24.61,23.98,24.66c49.02,0.2,98.05,0.09,147.07,0.19
	c3.42,0.01,4.37-1.44,4.36-4.53c-0.01-3.4-0.06-6.88,0.58-10.19c4.21-21.83,23.88-35.38,42.61-34.47c5.89,0.29,5.93,0,5.93-5.94
	c0.01-47.98,0.03-95.97-0.01-143.95c-0.01-15.09-10.47-25.53-25.44-25.54C213.84,44.59,184.87,44.6,155.91,44.6z"/>
<path d="M449.36,187.29c-6.68,0-13.37,0.05-20.05-0.02c-5.89-0.06-10.04-3.81-10.16-9.02c-0.12-5,4.23-8.96,10.06-9
	c9.21-0.06,18.42-0.16,27.62,0.04c4.01,0.09,5.19-1.41,4.84-5.27c-5.7-62.62-52.92-109.08-108.78-117.65
	c-6.27-0.96-12.65-1.39-19-1.71c-6.72-0.34-11.36-4.11-11.17-9.59c0.19-5.7,5.32-9.04,12.07-8.86c22.77,0.62,44.4,5.76,64.43,16.57
	c44.27,23.9,70.89,60.64,78.74,110.52c1.24,7.86,1.42,15.92,1.67,23.9c0.21,6.63-3.5,10.04-10.22,10.09
	C462.72,187.33,456.04,187.29,449.36,187.29z"/>
<path d="M407.61,414.5c0.02,5.37-2.65,9.02-6.52,9.84c-4.91,1.05-9.13-1.05-11.09-6.01c-3.27-8.27-6.55-16.57-9.27-25.03
	c-1.56-4.85-3.84-6.65-9.15-6.49c-14.4,0.44-28.82,0.39-43.22,0.02c-4.96-0.13-7.01,1.65-8.49,6.15
	c-2.82,8.59-6.16,17.01-9.51,25.41c-1.87,4.68-5.11,6.47-9.77,6.02c-4.27-0.41-6.93-3.11-7.67-6.96c-0.46-2.4,0.28-5.25,1.16-7.65
	c13.11-35.95,26.34-71.85,39.54-107.76c2.25-6.12,4.6-12.21,6.76-18.37c1.56-4.46,4.78-7.12,9.23-7.11
	c4.43,0.01,7.64,2.69,9.29,7.09c15.95,42.49,31.95,84.96,47.9,127.44C407.31,412.46,407.48,413.95,407.61,414.5z M350.1,313.89
	c-0.55-0.05-1.1-0.11-1.65-0.16c-6.55,18.05-13.1,36.09-19.9,54.8c14.17,0,27.24,0,41.36,0
	C363.14,349.85,356.62,331.87,350.1,313.89z"/>
<path d="M171,206.26c9.05,6.08,18.46,9.93,28.54,11.95c5.63,1.13,11.44,1.49,17.18,1.92c8.22,0.62,13.04,6.2,10.57,12.68
	c-1.7,4.47-5.33,6.23-9.87,6.12c-20.47-0.49-39.52-5.91-56.75-17.06c-3.32-2.15-5.61-2.39-9.06-0.15
	c-17.47,11.36-36.81,16.87-57.6,17.18c-5.66,0.09-9.69-3.61-10.19-8.65c-0.43-4.32,3.01-8.39,8.22-9.52
	c1.72-0.37,3.52-0.5,5.28-0.55c14.71-0.45,28.26-4.79,40.93-12.12c0.74-0.43,1.36-1.09,2.41-1.95c-1.37-1.67-2.59-3.26-3.9-4.77
	c-14.52-16.72-23.07-36.15-26-58.02c-0.49-3.65-2.13-4.31-5.23-4.2c-4.15,0.15-8.32,0.1-12.48,0.01c-5.23-0.11-9.19-3.93-9.3-8.82
	c-0.11-5.09,3.85-9.14,9.37-9.17c16.04-0.09,32.09-0.18,48.13,0.04c4.52,0.06,5.95-1.41,5.82-5.89c-0.28-9.94-0.11-19.9-0.08-29.86
	c0.02-6.32,3.56-10.5,8.88-10.59c5.5-0.09,9.13,4.13,9.15,10.76c0.03,9.8,0,19.61,0.02,29.41c0.01,5.95,0.11,6.07,5.92,6.07
	c15.45,0.02,30.9,0.21,46.35-0.08c7.06-0.13,10.33,4.32,10.56,8.95c0.27,5.53-4.06,9.15-10.71,9.2c-3.42,0.02-6.87,0.3-10.24-0.07
	c-4.31-0.47-5.41,1.66-6.25,5.41c-2,8.93-4.01,17.93-7.03,26.54c-4.16,11.89-11.3,22.16-19.66,31.56
	C173.12,203.58,172.32,204.64,171,206.26z M156.1,139.17c-7.58,0-15.15,0.03-22.73-0.01c-2.69-0.01-4.17,0.63-3.68,3.88
	c2.79,18.58,10.45,34.79,22.93,48.83c2.78,3.12,4.51,2.62,7.02-0.23c12.32-13.95,19.93-30.04,22.71-48.45
	c0.46-3.03-0.65-4.06-3.54-4.03C171.25,139.21,163.68,139.17,156.1,139.17z"/>
<path d="M55.99,320.22c6.68,0,13.37-0.05,20.05,0.02c5.89,0.06,10.04,3.81,10.16,9.02c0.12,5-4.23,8.96-10.06,9
	c-9.21,0.06-18.42,0.16-27.62-0.04c-4.01-0.09-5.19,1.41-4.84,5.27c5.7,62.62,52.92,109.08,108.78,117.65
	c6.27,0.96,12.65,1.39,19,1.71c6.72,0.34,11.36,4.11,11.17,9.59c-0.19,5.7-5.32,9.04-12.07,8.86c-22.77-0.62-44.4-5.76-64.43-16.57
	c-44.27-23.9-70.89-60.64-78.74-110.52c-1.24-7.86-1.42-15.92-1.67-23.9c-0.21-6.63,3.5-10.04,10.22-10.09
	C42.63,320.18,49.31,320.22,55.99,320.22z"/>
</svg>
