<svg width="31" height="50" viewBox="0 0 31 50" fill="none" xmlns="http://www.w3.org/2000/svg">
<path d="M26.1548 0.541016H4.07965C2.12538 0.541016 0.541138 2.12526 0.541138 4.07953V45.8707C0.541138 47.825 2.12538 49.4093 4.07965 49.4093H26.1548C28.109 49.4093 29.6933 47.825 29.6933 45.8707V4.07953C29.6933 2.12526 28.109 0.541016 26.1548 0.541016Z" fill="white"/>
<path d="M26.1547 1.06588C26.9496 1.06588 27.7121 1.38169 28.2742 1.94382C28.8363 2.50595 29.1521 3.26837 29.1521 4.06334V45.86C29.1521 46.6549 28.8363 47.4173 28.2742 47.9795C27.7121 48.5416 26.9496 48.8574 26.1547 48.8574H4.07955C3.28458 48.8574 2.52217 48.5416 1.96004 47.9795C1.39791 47.4173 1.08211 46.6549 1.08211 45.86V4.07957C1.08211 3.2846 1.39791 2.52218 1.96004 1.96005C2.52217 1.39792 3.28458 1.08211 4.07955 1.08211H26.1547V1.06588ZM26.1547 0H4.07955C2.99803 0.00143154 1.96121 0.4317 1.19646 1.19646C0.4317 1.96121 0.00143154 2.99804 0 4.07957V45.8762C0.00143154 46.9577 0.4317 47.9945 1.19646 48.7593C1.96121 49.5241 2.99803 49.9543 4.07955 49.9558H26.1547C27.2362 49.9543 28.273 49.5241 29.0378 48.7593C29.8025 47.9945 30.2328 46.9577 30.2342 45.8762V4.07957C30.2328 2.99804 29.8025 1.96121 29.0378 1.19646C28.273 0.4317 27.2362 0.00143154 26.1547 0Z" fill="#276AA5"/>
<path d="M14.6356 42.6678C14.8968 42.6678 15.1554 42.7193 15.3967 42.8194C15.638 42.9195 15.8571 43.0663 16.0416 43.2513C16.226 43.4362 16.3722 43.6558 16.4717 43.8973C16.5711 44.1388 16.622 44.3976 16.6213 44.6588C16.6213 44.9196 16.5699 45.1778 16.4701 45.4187C16.3703 45.6596 16.2241 45.8785 16.0397 46.0629C15.8553 46.2473 15.6364 46.3936 15.3955 46.4934C15.1545 46.5932 14.8963 46.6445 14.6356 46.6445C14.3744 46.6452 14.1156 46.5944 13.874 46.4949C13.6325 46.3954 13.4129 46.2493 13.228 46.0648C13.043 45.8804 12.8963 45.6613 12.7962 45.42C12.696 45.1787 12.6445 44.9201 12.6445 44.6588C12.6445 44.1308 12.8543 43.6243 13.2277 43.2509C13.6011 42.8775 14.1075 42.6678 14.6356 42.6678ZM14.6356 42.262C14.1613 42.2609 13.6973 42.4005 13.3025 42.6633C12.9076 42.926 12.5995 43.3 12.4173 43.7378C12.235 44.1757 12.1868 44.6578 12.2787 45.1231C12.3705 45.5884 12.5984 46.016 12.9334 46.3518C13.2684 46.6875 13.6955 46.9163 14.1606 47.0093C14.6257 47.1022 15.1079 47.055 15.5462 46.8738C15.9845 46.6925 16.3591 46.3853 16.6227 45.991C16.8863 45.5968 17.0271 45.1331 17.0271 44.6588C17.0256 44.0245 16.7734 43.4165 16.3254 42.9675C15.8773 42.5184 15.2699 42.2648 14.6356 42.262Z" fill="#276AA5"/>
<path d="M26.647 5.86499H3.58179V40.2221H26.647V5.86499Z" fill="#276AA5"/>
</svg>
