<svg width="170" height="51" viewBox="0 0 170 51" fill="none" xmlns="http://www.w3.org/2000/svg">
<g clip-path="url(#clip0_102_1712)">
<path d="M8.06501 50.4589C7.19116 50.4597 6.34804 50.1365 5.69852 49.5519C5.04899 48.9674 4.63914 48.1628 4.54814 47.2937L0.652546 10.5019C0.553989 9.56866 0.829581 8.63445 1.41889 7.90415C2.0082 7.17386 2.8631 6.70709 3.79608 6.60627L22.9495 4.58272C23.0738 4.57464 23.1985 4.57464 23.3228 4.58272C24.1967 4.58198 25.0398 4.90512 25.6893 5.48969C26.3388 6.07427 26.7487 6.87881 26.8397 7.7479L30.7353 44.5398C30.8323 45.4715 30.5558 46.4037 29.9665 47.1319C29.3772 47.8602 28.5232 48.325 27.5917 48.4245L8.43834 50.4535C8.31415 50.4634 8.18944 50.4652 8.06501 50.4589V50.4589Z" fill="white"/>
<path d="M23.3228 5.10756C24.062 5.10749 24.7751 5.3811 25.3246 5.87563C25.8741 6.37017 26.221 7.05062 26.2986 7.78579L30.1996 44.5776C30.2408 44.9691 30.2046 45.3649 30.0928 45.7424C29.9811 46.1199 29.7961 46.4717 29.5484 46.7777C29.3007 47.0836 28.9951 47.3378 28.6492 47.5257C28.3033 47.7136 27.9237 47.8315 27.5322 47.8727L8.38419 49.9016H8.06496C7.32149 49.901 6.60488 49.6236 6.05476 49.1235C5.50464 48.6234 5.16041 47.9364 5.08915 47.1964L1.18814 10.4045C1.1469 10.013 1.18319 9.6172 1.29492 9.23972C1.40666 8.86224 1.59165 8.51046 1.83935 8.20448C2.08704 7.8985 2.39258 7.64432 2.73853 7.45644C3.08447 7.26855 3.46403 7.15065 3.85554 7.10947L23.0035 5.08051H23.3228V5.10756ZM23.3228 3.9984C23.1786 3.99044 23.0341 3.99044 22.8899 3.9984L3.74193 6.02736C2.66659 6.14185 1.6807 6.67861 1.00095 7.51968C0.321193 8.36074 0.003196 9.43728 0.116841 10.5127L4.01246 47.3046C4.11691 48.3061 4.58908 49.2334 5.33764 49.907C6.0862 50.5806 7.05795 50.9527 8.06496 50.9513C8.20914 50.9592 8.35365 50.9592 8.49782 50.9513L27.6458 48.9223C28.7211 48.8078 29.707 48.2711 30.3868 47.43C31.0665 46.5889 31.3845 45.5124 31.2709 44.437L27.3753 7.64511C27.2708 6.64353 26.7987 5.71625 26.0501 5.04265C25.3016 4.36905 24.3298 3.99698 23.3228 3.9984V3.9984Z" fill="#276AA5"/>
<path d="M9.82416 6.51217L5.78345 6.94043L10.3141 49.688L14.3548 49.2597L9.82416 6.51217Z" fill="#276AA5"/>
<path d="M29.2474 49.0252H151.429L169.284 0.930664H29.2474V49.0252Z" fill="url(#paint0_linear_102_1712)"/>
<path d="M42.0434 0.541016H19.9683C18.0141 0.541016 16.4298 2.12526 16.4298 4.07953V45.8707C16.4298 47.825 18.0141 49.4093 19.9683 49.4093H42.0434C43.9977 49.4093 45.5819 47.825 45.5819 45.8707V4.07953C45.5819 2.12526 43.9977 0.541016 42.0434 0.541016Z" fill="white"/>
<path d="M42.0433 1.06588C42.8383 1.06588 43.6007 1.38169 44.1629 1.94382C44.725 2.50595 45.0408 3.26837 45.0408 4.06334V45.86C45.0408 46.6549 44.725 47.4173 44.1629 47.9795C43.6007 48.5416 42.8383 48.8574 42.0433 48.8574H19.9682C19.1733 48.8574 18.4108 48.5416 17.8487 47.9795C17.2866 47.4173 16.9708 46.6549 16.9708 45.86V4.07957C16.9708 3.2846 17.2866 2.52218 17.8487 1.96005C18.4108 1.39792 19.1733 1.08211 19.9682 1.08211H42.0433V1.06588ZM42.0433 0H19.9682C18.8867 0.00143154 17.8499 0.4317 17.0851 1.19646C16.3204 1.96121 15.8901 2.99804 15.8887 4.07957V45.8762C15.8901 46.9577 16.3204 47.9945 17.0851 48.7593C17.8499 49.5241 18.8867 49.9543 19.9682 49.9558H42.0433C43.1249 49.9543 44.1617 49.5241 44.9264 48.7593C45.6912 47.9945 46.1215 46.9577 46.1229 45.8762V4.07957C46.1215 2.99804 45.6912 1.96121 44.9264 1.19646C44.1617 0.4317 43.1249 0.00143154 42.0433 0V0Z" fill="#276AA5"/>
<path d="M30.5189 46.8447C31.7291 46.8447 32.7102 45.8636 32.7102 44.6534C32.7102 43.4432 31.7291 42.4622 30.5189 42.4622C29.3087 42.4622 28.3276 43.4432 28.3276 44.6534C28.3276 45.8636 29.3087 46.8447 30.5189 46.8447Z" fill="white"/>
<path d="M30.5242 42.6678C30.7855 42.6678 31.0441 42.7193 31.2854 42.8194C31.5267 42.9195 31.7458 43.0663 31.9303 43.2513C32.1147 43.4362 32.2609 43.6558 32.3603 43.8973C32.4598 44.1388 32.5106 44.3976 32.5099 44.6588V44.6588C32.5099 44.9196 32.4586 45.1778 32.3588 45.4187C32.259 45.6596 32.1127 45.8785 31.9283 46.0629C31.744 46.2473 31.525 46.3936 31.2841 46.4934C31.0432 46.5932 30.785 46.6445 30.5242 46.6445V46.6445C30.263 46.6452 30.0042 46.5944 29.7627 46.4949C29.5212 46.3954 29.3016 46.2493 29.1167 46.0648C28.9317 45.8804 28.785 45.6613 28.6848 45.42C28.5847 45.1787 28.5332 44.9201 28.5332 44.6588V44.6588C28.5332 44.1308 28.7429 43.6243 29.1163 43.2509C29.4897 42.8775 29.9962 42.6678 30.5242 42.6678V42.6678ZM30.5242 42.262C30.05 42.2609 29.586 42.4005 29.1911 42.6633C28.7963 42.926 28.4882 43.3 28.306 43.7378C28.1237 44.1757 28.0755 44.6578 28.1673 45.1231C28.2592 45.5884 28.4871 46.016 28.8221 46.3518C29.1571 46.6875 29.5841 46.9163 30.0492 47.0093C30.5143 47.1022 30.9965 47.055 31.4348 46.8738C31.8731 46.6925 32.2478 46.3853 32.5114 45.991C32.775 45.5968 32.9157 45.1331 32.9157 44.6588C32.9143 44.0245 32.662 43.4165 32.214 42.9675C31.766 42.5184 31.1586 42.2648 30.5242 42.262V42.262Z" fill="#276AA5"/>
<path d="M42.5357 5.86499H19.4705V40.2221H42.5357V5.86499Z" fill="#276AA5"/>
<path d="M54.9909 19.0019L54.0548 22.3782H50.9871L54.9909 9.23047H58.8919L62.9877 22.3782H59.7414L58.7242 19.0019H54.9909ZM58.3238 16.7782L57.5068 13.9918C57.2687 13.2072 57.0361 12.2333 56.8413 11.4542H56.8034C56.6086 12.2333 56.4139 13.2289 56.1974 13.9918L55.4183 16.7566L58.3238 16.7782Z" fill="#FFFFFD"/>
<path d="M64.7407 9.23047H67.7219V19.8839H72.954V22.3782H64.7407V9.23047Z" fill="#FFFFFD"/>
<path d="M74.7882 19.3157C75.8112 19.8373 76.9404 20.1168 78.0886 20.1327C79.4521 20.1327 80.1717 19.5916 80.1717 18.7097C80.1717 17.8278 79.5495 17.422 77.9696 16.8755C75.8054 16.0964 74.3391 14.8898 74.3391 12.9745C74.3391 10.7345 76.2328 9.03561 79.3168 9.03561C80.4702 9.00274 81.6164 9.22828 82.6714 9.6957L82.0059 12.0763C81.1634 11.6652 80.238 11.4523 79.3006 11.4541C78.0129 11.4541 77.3906 12.0601 77.3906 12.7202C77.3906 13.5588 78.1157 13.9322 79.8308 14.576C82.1519 15.4363 83.2232 16.6429 83.2232 18.4987C83.2232 20.7008 81.546 22.5728 77.9371 22.5728C76.6492 22.5812 75.3756 22.3021 74.2092 21.7558L74.7882 19.3157Z" fill="#FFFFFD"/>
<path d="M88.2821 19.0019L87.3461 22.3782H84.2837L88.2821 9.23047H92.1831L96.2843 22.3782H93.0651L92.0695 19.0019H88.2821ZM91.6204 16.7782L90.798 13.9918C90.5654 13.2072 90.3327 12.2333 90.1379 11.4542H90.1001C89.8999 12.2333 89.7051 13.2289 89.4941 13.9918L88.7204 16.7566L91.6204 16.7782Z" fill="#FFFFFD"/>
<path d="M98.0211 9.42527C99.3462 9.22457 100.685 9.12688 102.025 9.13309C104.541 9.13309 106.18 9.5984 107.436 10.5344C108.804 11.5516 109.659 13.1694 109.659 15.4905C109.659 18.0064 108.745 19.7432 107.495 20.8199C106.11 21.967 103.984 22.5134 101.408 22.5134C100.28 22.523 99.1518 22.4579 98.0319 22.3186L98.0211 9.42527ZM100.986 20.1328C101.33 20.1851 101.678 20.2051 102.025 20.1923C104.73 20.1923 106.51 18.7314 106.51 15.5879C106.51 12.8826 104.887 11.4164 102.333 11.4164C101.882 11.4089 101.43 11.447 100.986 11.53V20.1328Z" fill="#FFFFFD"/>
<path d="M119.425 16.8215H114.588V19.938H119.999V22.3782H111.623V9.23047H119.739V11.6706H114.61V14.3759H119.447L119.425 16.8215Z" fill="#FFFFFD"/>
<path d="M129.841 16.8215H125.004V19.938H130.414V22.3782H122.039V9.23047H130.154V11.6706H125.025V14.3759H129.862L129.841 16.8215Z" fill="#FFFFFD"/>
<path d="M132.438 9.42527C133.761 9.22457 135.098 9.12688 136.436 9.13309C138.952 9.13309 140.591 9.5984 141.847 10.5344C143.21 11.5516 144.07 13.1694 144.07 15.4905C144.07 18.0064 143.151 19.7432 141.906 20.8199C140.521 21.967 138.395 22.5134 135.819 22.5134C134.693 22.523 133.567 22.458 132.449 22.3186L132.438 9.42527ZM135.403 20.1328C135.745 20.1852 136.091 20.2051 136.436 20.1923C139.141 20.1923 140.922 18.7314 140.922 15.5879C140.922 12.8826 139.298 11.4164 136.75 11.4164C136.298 11.4089 135.847 11.447 135.403 11.53V20.1328Z" fill="#FFFFFD"/>
<path d="M60.4501 41.5207C59.4406 41.9063 58.3652 42.0901 57.2849 42.0618C53.0052 42.0618 50.7922 39.3565 50.7922 35.8504C50.7922 31.6194 53.8059 29.2874 57.5554 29.2874C58.602 29.2378 59.6464 29.4227 60.6124 29.8285L60.0227 32.0306C59.2775 31.7192 58.4767 31.5627 57.669 31.5707C55.4615 31.5707 53.7356 32.9125 53.7356 35.6719C53.7356 38.1553 55.2073 39.719 57.6853 39.719C58.4878 39.7262 59.2851 39.5887 60.0389 39.3132L60.4501 41.5207Z" fill="#F89620"/>
<path d="M65.3792 38.6692L64.4756 41.8506H61.608L65.3954 29.4604H69.0746L72.9323 41.8506H69.8862L68.9285 38.6692H65.3792ZM68.5227 36.5753L67.749 33.9458C67.5326 33.21 67.3108 32.2902 67.1268 31.5543H67.0889C66.905 32.2902 66.721 33.2262 66.5208 33.9458L65.785 36.5753H68.5227Z" fill="#F89620"/>
<path d="M74.5554 29.6228C75.7916 29.4435 77.0396 29.3585 78.2887 29.3685C80.1283 29.3685 81.416 29.6444 82.2979 30.3424C82.6829 30.6549 82.9886 31.0541 83.1898 31.5074C83.391 31.9606 83.4822 32.455 83.4558 32.9503C83.4432 33.6192 83.2266 34.2683 82.835 34.8107C82.4434 35.3532 81.8955 35.7631 81.2645 35.9856V36.0397C82.1302 36.3914 82.6063 37.1976 82.9202 38.3392C83.3097 39.7513 83.6776 41.3745 83.9157 41.8506H81.0481C80.6789 40.915 80.3946 39.948 80.1986 38.9614C79.8524 37.4032 79.3167 36.9974 78.1588 36.9757H77.331V41.8452H74.5554V29.6228ZM77.331 34.9576H78.4132C79.8091 34.9576 80.6369 34.2542 80.6369 33.1721C80.6369 32.09 79.8686 31.4623 78.5809 31.4623C78.1549 31.4452 77.7284 31.4761 77.3094 31.5543L77.331 34.9576Z" fill="#F89620"/>
<path d="M85.4631 29.6444C86.7165 29.4542 87.9828 29.3619 89.2505 29.3685C91.6204 29.3685 93.1678 29.8068 94.3419 30.6887C95.6296 31.6463 96.4412 33.1721 96.4412 35.358C96.4412 37.7332 95.5755 39.3672 94.4014 40.379C93.092 41.4611 91.0901 42.0022 88.6608 42.0022C87.5992 42.0114 86.5382 41.9499 85.4848 41.8182L85.4631 29.6444ZM88.2821 39.7351C88.6044 39.7828 88.9303 39.8009 89.2559 39.7892C91.8097 39.7892 93.487 38.4096 93.487 35.4608C93.487 32.8908 91.9775 31.5273 89.5481 31.5273C89.1232 31.517 88.6984 31.5551 88.2821 31.6409V39.7351Z" fill="#F89620"/>
<path d="M98.3512 38.9398C99.3132 39.4329 100.376 39.6977 101.457 39.7135C102.745 39.7135 103.426 39.1725 103.426 38.3717C103.426 37.5709 102.837 37.1597 101.349 36.6457C99.2872 35.9099 97.9292 34.7683 97.9292 32.9665C97.9292 30.851 99.7092 29.2549 102.615 29.2549C103.703 29.224 104.784 29.4366 105.78 29.8771L105.152 32.1225C104.352 31.731 103.473 31.5292 102.582 31.5327C101.365 31.5327 100.781 32.0738 100.781 32.7285C100.781 33.5184 101.457 33.8701 103.075 34.4761C105.239 35.2823 106.278 36.4239 106.278 38.1715C106.278 40.2492 104.692 42.013 101.295 42.013C100.081 42.0209 98.881 41.7565 97.7831 41.2393L98.3512 38.9398Z" fill="#F89620"/>
<path d="M114.794 38.6692L113.912 41.8506H111.006L114.794 29.4604H118.473L122.336 41.8506H119.301L118.343 38.6692H114.794ZM117.937 36.5753L117.169 33.9458C116.947 33.21 116.725 32.2902 116.541 31.5543H116.504C116.32 32.2902 116.136 33.2262 115.963 33.9458L115.227 36.5753H117.937Z" fill="#F89620"/>
<path d="M123.992 29.6229C125.245 29.4345 126.512 29.3495 127.779 29.3686C129.511 29.3686 130.744 29.6986 131.567 30.3587C131.991 30.7038 132.331 31.1418 132.56 31.639C132.789 32.1361 132.901 32.6792 132.887 33.2263C132.915 33.7697 132.828 34.3129 132.631 34.8201C132.434 35.3274 132.132 35.7873 131.745 36.1697C130.793 37.0516 129.375 37.4736 127.72 37.4736C127.401 37.4814 127.082 37.4579 126.767 37.4033V41.8508H123.992V29.6229ZM126.773 35.2499C127.081 35.3101 127.395 35.3355 127.709 35.3256C129.197 35.3256 130.117 34.5681 130.117 33.3183C130.117 32.1767 129.327 31.5004 127.909 31.5004C127.528 31.4876 127.147 31.5185 126.773 31.5923V35.2499Z" fill="#F89620"/>
<path d="M134.651 29.6229C135.904 29.4345 137.171 29.3495 138.438 29.3686C140.169 29.3686 141.398 29.6986 142.225 30.3587C142.652 30.7027 142.993 31.1404 143.223 31.6377C143.453 32.135 143.565 32.6786 143.551 33.2263C143.578 33.7696 143.49 34.3123 143.293 34.8194C143.096 35.3265 142.795 35.7865 142.409 36.1697C141.278 37.0929 139.842 37.5582 138.384 37.4736C138.063 37.4813 137.742 37.4577 137.426 37.4033V41.8508H134.651V29.6229ZM137.426 35.2499C137.736 35.3102 138.052 35.3356 138.368 35.3256C139.856 35.3256 140.775 34.5681 140.775 33.3183C140.775 32.1767 139.985 31.5004 138.568 31.5004C138.185 31.4881 137.802 31.5189 137.426 31.5923V35.2499Z" fill="#F89620"/>
</g>
<defs>
<linearGradient id="paint0_linear_102_1712" x1="29.2474" y1="24.9752" x2="169.284" y2="24.9752" gradientUnits="userSpaceOnUse">
<stop stop-color="#4A5BA8"/>
<stop offset="1" stop-color="#8A6EB1"/>
</linearGradient>
<clipPath id="clip0_102_1712">
<rect width="169.194" height="51" fill="white" transform="translate(0.0898438)"/>
</clipPath>
</defs>
</svg>
