<svg width="54" height="54" viewBox="0 0 54 54" fill="none" xmlns="http://www.w3.org/2000/svg">
<path d="M20.0475 46.5075C19.62 46.5075 19.1925 46.35 18.855 46.0125C18.2025 45.36 18.2025 44.28 18.855 43.6275L33.525 28.9575C34.605 27.8775 34.605 26.1225 33.525 25.0425L18.855 10.3725C18.2025 9.72004 18.2025 8.64004 18.855 7.98754C19.5075 7.33504 20.5875 7.33504 21.24 7.98754L35.91 22.6575C37.0575 23.805 37.71 25.3575 37.71 27C37.71 28.6425 37.08 30.195 35.91 31.3425L21.24 46.0125C20.9025 46.3275 20.475 46.5075 20.0475 46.5075Z" fill="#292D32"/>
</svg>
