<svg width="20" height="40" viewBox="0 0 20 40" fill="none" xmlns="http://www.w3.org/2000/svg">
<path d="M17.9525 0.492516C18.38 0.492516 18.8075 0.650013 19.145 0.987511C19.7975 1.64001 19.7975 2.72002 19.145 3.37252L4.47503 18.0425C3.39503 19.1225 3.39503 20.8775 4.47503 21.9575L19.145 36.6275C19.7975 37.28 19.7975 38.36 19.145 39.0125C18.4925 39.665 17.4125 39.665 16.76 39.0125L2.09003 24.3425C0.942524 23.195 0.290026 21.6425 0.290026 20C0.290026 18.3575 0.920025 16.805 2.09002 15.6575L16.76 0.987511C17.0975 0.672512 17.525 0.492516 17.9525 0.492516Z" fill="#292D32"/>
</svg>
