<svg width="20" height="40" viewBox="0 0 20 40" fill="none" xmlns="http://www.w3.org/2000/svg">
<path d="M2.04747 39.5075C1.61997 39.5075 1.19248 39.35 0.854976 39.0125C0.202476 38.36 0.202476 37.28 0.854976 36.6275L15.525 21.9575C16.605 20.8775 16.605 19.1225 15.525 18.0425L0.854976 3.37248C0.202476 2.71998 0.202476 1.63998 0.854976 0.987483C1.50748 0.334983 2.58747 0.334983 3.23997 0.987483L17.91 15.6575C19.0575 16.805 19.71 18.3575 19.71 20C19.71 21.6425 19.08 23.195 17.91 24.3425L3.23997 39.0125C2.90247 39.3275 2.47497 39.5075 2.04747 39.5075Z" fill="#292D32"/>
</svg>
