<svg width="54" height="54" viewBox="0 0 54 54" fill="none" xmlns="http://www.w3.org/2000/svg">
<path d="M33.9524 7.49245C34.3799 7.49245 34.8074 7.64995 35.1449 7.98745C35.7974 8.63995 35.7974 9.71995 35.1449 10.3725L20.4749 25.0425C19.3949 26.1225 19.3949 27.8775 20.4749 28.9575L35.1449 43.6275C35.7974 44.28 35.7974 45.36 35.1449 46.0125C34.4924 46.665 33.4124 46.665 32.7599 46.0125L18.0899 31.3425C16.9424 30.195 16.2899 28.6425 16.2899 27C16.2899 25.3575 16.9199 23.805 18.0899 22.6575L32.7599 7.98745C33.0974 7.67245 33.5249 7.49245 33.9524 7.49245Z" fill="#292D32"/>
</svg>
