<svg width="22" height="22" viewBox="0 0 22 22" fill="none" xmlns="http://www.w3.org/2000/svg">
<path d="M19.2503 6.16894C19.232 6.16894 19.2045 6.16894 19.177 6.16894C14.3279 5.68311 9.48785 5.49977 4.69368 5.98561L2.82368 6.16894C2.43868 6.20561 2.09952 5.93061 2.06285 5.54561C2.02618 5.16061 2.30118 4.83061 2.67702 4.79394L4.54702 4.61061C9.42368 4.11561 14.3645 4.30811 19.3145 4.79394C19.6903 4.83061 19.9653 5.16977 19.9287 5.54561C19.9012 5.90311 19.5987 6.16894 19.2503 6.16894Z" fill="#FF8080"/>
<path d="M7.7917 5.2435C7.75503 5.2435 7.71836 5.2435 7.67253 5.23433C7.30586 5.17016 7.0492 4.81266 7.11336 4.446L7.31503 3.24516C7.4617 2.36516 7.66336 1.146 9.7992 1.146H12.2009C14.3459 1.146 14.5475 2.411 14.685 3.25433L14.8867 4.446C14.9509 4.82183 14.6942 5.17933 14.3275 5.23433C13.9517 5.2985 13.5942 5.04183 13.5392 4.67516L13.3375 3.4835C13.2092 2.686 13.1817 2.53016 12.21 2.53016H9.80836C8.8367 2.53016 8.81836 2.6585 8.68086 3.47433L8.47003 4.666C8.41503 5.00516 8.1217 5.2435 7.7917 5.2435Z" fill="#FF8080"/>
<path d="M13.9422 20.8541H8.0572C4.85804 20.8541 4.7297 19.0849 4.62887 17.6549L4.03304 8.42411C4.00554 8.04828 4.29887 7.71828 4.6747 7.69078C5.0597 7.67245 5.38054 7.95661 5.40804 8.33245L6.00387 17.5633C6.1047 18.9566 6.14137 19.4791 8.0572 19.4791H13.9422C15.8672 19.4791 15.9039 18.9566 15.9955 17.5633L16.5914 8.33245C16.6189 7.95661 16.9489 7.67245 17.3247 7.69078C17.7005 7.71828 17.9939 8.03911 17.9664 8.42411L17.3705 17.6549C17.2697 19.0849 17.1414 20.8541 13.9422 20.8541Z" fill="#FF8080"/>
<path d="M12.5212 15.8125H9.46875C9.09292 15.8125 8.78125 15.5008 8.78125 15.125C8.78125 14.7492 9.09292 14.4375 9.46875 14.4375H12.5212C12.8971 14.4375 13.2087 14.7492 13.2087 15.125C13.2087 15.5008 12.8971 15.8125 12.5212 15.8125Z" fill="#FF8080"/>
<path d="M13.2913 12.146H8.70801C8.33217 12.146 8.02051 11.8343 8.02051 11.4585C8.02051 11.0827 8.33217 10.771 8.70801 10.771H13.2913C13.6672 10.771 13.9788 11.0827 13.9788 11.4585C13.9788 11.8343 13.6672 12.146 13.2913 12.146Z" fill="#FF8080"/>
</svg>
