<svg width="84" height="84" viewBox="0 0 84 84" fill="none" xmlns="http://www.w3.org/2000/svg">
<rect width="84" height="84" rx="10" fill="#004FC4"/>
<g clip-path="url(#clip0_78_2067)">
<path d="M13.286 18.8571C16.8364 18.8571 19.7146 15.979 19.7146 12.4286C19.7146 8.87817 16.8364 6 13.286 6C9.73559 6 6.85742 8.87817 6.85742 12.4286C6.85742 15.979 9.73559 18.8571 13.286 18.8571Z" fill="#6DA544"/>
<path d="M10.4912 13.686C10.4912 14.1491 10.8666 14.5245 11.3297 14.5245H13.8452C13.8452 14.9105 14.1581 15.2233 14.544 15.2233H15.3825C15.7684 15.2233 16.0813 14.9105 16.0813 14.5245V13.686H10.4912Z" fill="#F0F0F0"/>
<path d="M16.1518 9.6333V11.5898C16.1518 11.8981 15.901 12.1488 15.5928 12.1488V12.9873C16.3634 12.9873 16.9903 12.3604 16.9903 11.5898V9.6333H16.1518Z" fill="#F0F0F0"/>
<path d="M10.142 11.5898C10.142 11.8981 9.89125 12.1488 9.58301 12.1488V12.9873C10.3536 12.9873 10.9805 12.3604 10.9805 11.5898V9.6333H10.142V11.5898Z" fill="#F0F0F0"/>
<path d="M14.8936 9.6333H15.7321V11.5898H14.8936V9.6333Z" fill="#F0F0F0"/>
<path d="M13.6354 10.7513C13.6354 10.8284 13.5727 10.8911 13.4957 10.8911C13.4186 10.8911 13.3559 10.8284 13.3559 10.7513V9.6333H12.5174V10.7513C12.5174 10.8284 12.4547 10.8911 12.3777 10.8911C12.3006 10.8911 12.2379 10.8284 12.2379 10.7513V9.6333H11.3994V10.7513C11.3994 11.2907 11.8383 11.7296 12.3777 11.7296C12.5854 11.7296 12.7781 11.6643 12.9367 11.5534C13.0953 11.6643 13.288 11.7296 13.4957 11.7296C13.5375 11.7296 13.5787 11.7267 13.6191 11.7215C13.5597 11.9663 13.3392 12.1488 13.0764 12.1488V12.9873C13.847 12.9873 14.474 12.3604 14.474 11.5898V10.7513V9.6333H13.6355V10.7513H13.6354Z" fill="#F0F0F0"/>
<path d="M11.3994 12.1489H12.6572V12.9874H11.3994V12.1489Z" fill="#F0F0F0"/>
</g>
<mask id="mask0_78_2067" style="mask-type:alpha" maskUnits="userSpaceOnUse" x="0" y="0" width="84" height="84">
<rect width="84" height="84" rx="10" fill="#004FC4"/>
</mask>
<g mask="url(#mask0_78_2067)">
<path d="M56.6017 77.3761C54.7825 79.6768 50.3354 81.3192 50.3354 81.3192L17.2246 93.2516V84.4544L41.5905 75.737C44.3575 74.7396 44.7849 73.3399 42.5382 72.6018C40.2915 71.8637 36.2421 72.0765 33.4619 73.0673L17.2246 78.8091V69.6827L18.1558 69.3502C21.8271 68.1681 25.6106 67.3704 29.4456 66.9698C36.0433 66.2516 44.1255 67.0695 50.4647 69.4866C57.6124 71.7407 58.4176 75.0787 56.6017 77.3761Z" fill="white"/>
<path d="M20.377 62.395V39.8933C20.377 37.2568 19.8932 34.8298 17.4178 34.1416C15.5257 33.5199 14.3559 35.2919 14.3559 37.9251V94.269L-0.78125 89.4449V22.2856C5.66397 23.4859 15.0452 26.3218 20.0953 28.0208C32.9195 32.4426 37.2671 37.9417 37.2671 50.3296C37.2505 62.3883 29.8211 66.9698 20.377 62.395Z" fill="white"/>
</g>
<path d="M72.0736 13.09L72.2736 11.48C72.7036 11.51 73.2336 11.55 73.6136 11.6L73.7236 10.54C73.3836 10.47 72.8936 10.39 72.4136 10.34L72.5936 8.9H71.8536L71.6736 10.28H71.5436C70.2036 10.28 69.2936 10.87 69.2936 12.24C69.2936 13.26 69.8136 13.77 71.1836 14.18L70.9636 15.93C70.4836 15.89 69.9036 15.83 69.5036 15.78L69.3736 16.82C69.7436 16.9 70.2936 17 70.8236 17.07L70.6736 18.23L71.4136 18.3L71.5636 17.12H71.5736C72.8736 17.12 73.8536 16.45 73.8536 15.01C73.8536 13.93 73.4436 13.53 72.0736 13.09ZM70.6236 12.14C70.6236 11.74 70.9136 11.49 71.5236 11.45L71.3536 12.84C70.7736 12.63 70.6236 12.46 70.6236 12.14ZM71.7136 15.94L71.9036 14.42C72.3936 14.61 72.5236 14.79 72.5236 15.1C72.5236 15.56 72.2736 15.88 71.7136 15.94Z" fill="#FFCC00"/>
<path d="M52.4677 20H54.9517V8.12H52.6837L48.7597 10.73L49.8937 12.584L52.4677 10.928V20ZM62.54 20.216C65.492 20.216 67.148 18.632 67.148 14.132C67.148 9.632 65.492 7.904 62.54 7.904C59.588 7.904 57.932 9.632 57.932 14.132C57.932 18.632 59.588 20.216 62.54 20.216ZM62.558 18.056C61.118 18.056 60.488 17.048 60.488 14.132C60.488 11.036 61.118 10.064 62.558 10.064C63.998 10.064 64.592 11.036 64.592 14.132C64.592 17.048 63.998 18.056 62.558 18.056Z" fill="#FFCC00"/>
<defs>
<clipPath id="clip0_78_2067">
<rect width="12.8571" height="12.8571" fill="white" transform="translate(6.85742 6)"/>
</clipPath>
</defs>
</svg>
