<svg width="30" height="30" viewBox="0 0 30 30" fill="none" xmlns="http://www.w3.org/2000/svg">
<path d="M18.75 28.4375H11.25C4.4625 28.4375 1.5625 25.5375 1.5625 18.75V11.25C1.5625 4.4625 4.4625 1.5625 11.25 1.5625H18.75C25.5375 1.5625 28.4375 4.4625 28.4375 11.25V18.75C28.4375 25.5375 25.5375 28.4375 18.75 28.4375ZM11.25 3.4375C5.4875 3.4375 3.4375 5.4875 3.4375 11.25V18.75C3.4375 24.5125 5.4875 26.5625 11.25 26.5625H18.75C24.5125 26.5625 26.5625 24.5125 26.5625 18.75V11.25C26.5625 5.4875 24.5125 3.4375 18.75 3.4375H11.25Z" fill="white"/>
<path d="M17.6375 22.0125C17.4 22.0125 17.1625 21.9249 16.975 21.7374C16.6125 21.3749 16.6125 20.775 16.975 20.4125L20.775 16.6125C21.1375 16.25 21.7375 16.25 22.1 16.6125C22.4625 16.975 22.4625 17.5749 22.1 17.9374L18.3 21.7374C18.125 21.9124 17.8875 22.0125 17.6375 22.0125Z" fill="white"/>
<path d="M21.4375 18.2124H8.5625C8.05 18.2124 7.625 17.7874 7.625 17.2749C7.625 16.7624 8.05 16.3374 8.5625 16.3374H21.45C21.9625 16.3374 22.3875 16.7624 22.3875 17.2749C22.3875 17.7874 21.9625 18.2124 21.4375 18.2124Z" fill="white"/>
<path d="M8.5623 13.6626C8.3248 13.6626 8.0873 13.5751 7.8998 13.3876C7.5373 13.0251 7.5373 12.4251 7.8998 12.0626L11.6998 8.2626C12.0623 7.9001 12.6623 7.9001 13.0248 8.2626C13.3873 8.6251 13.3873 9.22509 13.0248 9.58759L9.2248 13.3876C9.0373 13.5751 8.7998 13.6626 8.5623 13.6626Z" fill="white"/>
<path d="M21.4375 13.6626H8.5625C8.05 13.6626 7.625 13.2376 7.625 12.7251C7.625 12.2126 8.05 11.7876 8.5625 11.7876H21.45C21.9625 11.7876 22.3875 12.2126 22.3875 12.7251C22.3875 13.2376 21.9625 13.6626 21.4375 13.6626Z" fill="white"/>
</svg>
