<svg width="22" height="22" viewBox="0 0 22 22" fill="none" xmlns="http://www.w3.org/2000/svg">
<path d="M19.25 6.16919C19.2317 6.16919 19.2042 6.16919 19.1767 6.16919C14.3275 5.68335 9.4875 5.50002 4.69333 5.98585L2.82333 6.16919C2.43833 6.20585 2.09917 5.93085 2.0625 5.54585C2.02583 5.16085 2.30083 4.83085 2.67667 4.79419L4.54667 4.61085C9.42333 4.11585 14.3642 4.30835 19.3142 4.79419C19.69 4.83085 19.965 5.17002 19.9283 5.54585C19.9008 5.90335 19.5983 6.16919 19.25 6.16919Z" fill="#FF8080"/>
<path d="M7.79167 5.24325C7.755 5.24325 7.71833 5.24325 7.6725 5.23409C7.30583 5.16992 7.04917 4.81242 7.11333 4.44575L7.315 3.24492C7.46167 2.36492 7.66333 1.14575 9.79916 1.14575H12.2008C14.3458 1.14575 14.5475 2.41075 14.685 3.25409L14.8867 4.44575C14.9508 4.82159 14.6942 5.17909 14.3275 5.23409C13.9517 5.29825 13.5942 5.04159 13.5392 4.67492L13.3375 3.48325C13.2092 2.68575 13.1817 2.52992 12.21 2.52992H9.80833C8.83667 2.52992 8.81833 2.65825 8.68083 3.47409L8.47 4.66575C8.415 5.00492 8.12167 5.24325 7.79167 5.24325Z" fill="#FF8080"/>
<path d="M13.9425 20.8541H8.05749C4.85833 20.8541 4.72999 19.0849 4.62916 17.6549L4.03333 8.42411C4.00583 8.04828 4.29916 7.71828 4.67499 7.69078C5.05999 7.67245 5.38083 7.95661 5.40833 8.33245L6.00416 17.5633C6.10499 18.9566 6.14166 19.4791 8.05749 19.4791H13.9425C15.8675 19.4791 15.9042 18.9566 15.9958 17.5633L16.5917 8.33245C16.6192 7.95661 16.9492 7.67245 17.325 7.69078C17.7008 7.71828 17.9942 8.03911 17.9667 8.42411L17.3708 17.6549C17.27 19.0849 17.1417 20.8541 13.9425 20.8541Z" fill="#FF8080"/>
<path d="M12.5217 15.8125H9.46916C9.09333 15.8125 8.78166 15.5008 8.78166 15.125C8.78166 14.7492 9.09333 14.4375 9.46916 14.4375H12.5217C12.8975 14.4375 13.2092 14.7492 13.2092 15.125C13.2092 15.5008 12.8975 15.8125 12.5217 15.8125Z" fill="#FF8080"/>
<path d="M13.2917 12.1458H8.70833C8.33249 12.1458 8.02083 11.8341 8.02083 11.4583C8.02083 11.0824 8.33249 10.7708 8.70833 10.7708H13.2917C13.6675 10.7708 13.9792 11.0824 13.9792 11.4583C13.9792 11.8341 13.6675 12.1458 13.2917 12.1458Z" fill="#FF8080"/>
</svg>
