<svg width="20" height="20" viewBox="0 0 20 20" fill="none" xmlns="http://www.w3.org/2000/svg">
<path d="M17.5001 5.60833C17.4834 5.60833 17.4584 5.60833 17.4334 5.60833C13.0251 5.16667 8.62505 5 4.26672 5.44167L2.56672 5.60833C2.21672 5.64167 1.90839 5.39167 1.87505 5.04167C1.84172 4.69167 2.09172 4.39167 2.43339 4.35833L4.13339 4.19167C8.56672 3.74167 13.0584 3.91667 17.5584 4.35833C17.9001 4.39167 18.1501 4.7 18.1167 5.04167C18.0917 5.36667 17.8167 5.60833 17.5001 5.60833Z" fill="#FF8080"/>
<path d="M7.08363 4.76667C7.05029 4.76667 7.01696 4.76667 6.97529 4.75834C6.64196 4.70001 6.40863 4.37501 6.46696 4.04167L6.65029 2.95001C6.78363 2.15001 6.96696 1.04167 8.90863 1.04167H11.092C13.042 1.04167 13.2253 2.19167 13.3503 2.95834L13.5336 4.04167C13.592 4.38334 13.3586 4.70834 13.0253 4.75834C12.6836 4.81667 12.3586 4.58334 12.3086 4.25001L12.1253 3.16667C12.0086 2.44167 11.9836 2.30001 11.1003 2.30001H8.91696C8.03363 2.30001 8.01696 2.41667 7.89196 3.15834L7.70029 4.24167C7.65029 4.55001 7.38363 4.76667 7.08363 4.76667Z" fill="#FF8080"/>
<path d="M12.675 18.9583H7.325C4.41666 18.9583 4.3 17.35 4.20833 16.05L3.66666 7.65833C3.64166 7.31667 3.90833 7.01667 4.25 6.99167C4.6 6.975 4.89166 7.23334 4.91666 7.575L5.45833 15.9667C5.55 17.2333 5.58333 17.7083 7.325 17.7083H12.675C14.425 17.7083 14.4583 17.2333 14.5417 15.9667L15.0833 7.575C15.1083 7.23334 15.4083 6.975 15.75 6.99167C16.0917 7.01667 16.3583 7.30833 16.3333 7.65833L15.7917 16.05C15.7 17.35 15.5833 18.9583 12.675 18.9583Z" fill="#FF8080"/>
<path d="M11.3834 14.375H8.6084C8.26673 14.375 7.9834 14.0917 7.9834 13.75C7.9834 13.4083 8.26673 13.125 8.6084 13.125H11.3834C11.7251 13.125 12.0084 13.4083 12.0084 13.75C12.0084 14.0917 11.7251 14.375 11.3834 14.375Z" fill="#FF8080"/>
<path d="M12.0837 11.0417H7.91699C7.57533 11.0417 7.29199 10.7583 7.29199 10.4167C7.29199 10.075 7.57533 9.79167 7.91699 9.79167H12.0837C12.4253 9.79167 12.7087 10.075 12.7087 10.4167C12.7087 10.7583 12.4253 11.0417 12.0837 11.0417Z" fill="#FF8080"/>
</svg>
